<?xml version="1.0" standalone="no"?>
<!DOCTYPE svg PUBLIC "-//W3C//DTD SVG 20010904//EN"
 "http://www.w3.org/TR/2001/REC-SVG-20010904/DTD/svg10.dtd">
<svg version="1.0" xmlns="http://www.w3.org/2000/svg"
 width="1024.000000pt" height="1024.000000pt" viewBox="0 0 1024.000000 1024.000000"
 preserveAspectRatio="xMidYMid meet">
<metadata>
Created by potrace 1.14, written by Peter Selinger 2001-2017
</metadata>
<g transform="translate(0.000000,1024.000000) scale(0.100000,-0.100000)"
fill="#000000" stroke="none">
<path d="M5930 8937 c0 -7 8 -36 17 -63 16 -48 17 -48 26 -21 7 21 4 35 -13
62 -23 38 -30 43 -30 22z"/>
<path d="M6066 8918 c-9 -35 -7 -146 3 -152 17 -11 35 26 39 82 3 47 1 60 -16
75 -19 17 -20 17 -26 -5z"/>
<path d="M6235 8918 c-25 -19 -28 -20 -37 -5 -5 10 -13 17 -17 17 -9 0 -24
-152 -21 -210 10 -209 -1 -313 -37 -346 l-26 -24 24 -9 c13 -5 27 -7 31 -4 15
8 28 81 28 158 1 105 15 212 31 231 27 32 30 -15 18 -239 -7 -122 -13 -264
-14 -314 0 -90 -1 -93 -22 -93 -13 0 -24 6 -24 15 -1 8 -3 20 -4 25 -1 6 -3
44 -4 86 -1 74 -2 75 -23 68 -25 -9 -43 -8 -100 2 l-38 6 -1 -108 -1 -109 -14
60 c-9 35 -13 79 -9 106 3 31 1 50 -7 56 -21 17 -105 32 -116 21 -6 -6 -14 9
-21 44 -25 117 -30 128 -56 128 -24 0 -26 -5 -37 -110 -2 -14 -9 -25 -18 -25
-12 0 -14 -13 -11 -68 2 -38 0 -97 -4 -132 -5 -51 -10 -64 -26 -68 -16 -4 -19
-14 -19 -69 0 -102 -39 -137 -92 -80 -22 23 -27 38 -30 99 -2 40 -9 78 -16 85
-23 23 -32 -12 -29 -114 2 -54 1 -101 -2 -106 -3 -5 -33 -12 -65 -16 -33 -4
-66 -12 -74 -18 -8 -7 -41 -11 -79 -10 -78 2 -87 11 -104 95 -13 66 -20 73
-51 55 -13 -7 -45 -15 -71 -18 l-49 -5 64 -68 c36 -37 67 -64 71 -61 4 4 3 12
-2 18 -4 6 -11 20 -14 31 l-7 20 16 -20 c8 -11 19 -19 23 -18 4 1 6 -11 3 -26
-3 -19 4 -37 22 -58 14 -17 26 -34 26 -37 0 -12 -71 -6 -108 9 -20 9 -56 20
-79 25 -31 7 -57 25 -103 70 -55 54 -90 74 -90 52 0 -10 33 -42 43 -42 4 0 17
-9 29 -19 13 -11 34 -28 48 -40 l25 -20 -25 -10 c-22 -8 -22 -10 -5 -10 11 -1
37 -12 57 -26 20 -14 40 -25 43 -25 6 0 10 -3 60 -44 l30 -25 -41 -1 c-22 0
-64 7 -93 16 -29 8 -55 13 -58 11 -6 -7 70 -50 137 -78 80 -33 90 -44 90 -102
0 -44 -4 -55 -40 -93 -40 -43 -40 -44 -40 -124 0 -44 -3 -80 -7 -80 -5 0 -23
30 -40 68 -34 69 -43 137 -21 144 18 6 -19 24 -64 31 -23 3 -38 2 -38 -5 0
-15 33 -68 43 -68 4 0 6 -4 3 -8 -3 -5 1 -20 8 -34 18 -34 33 -84 39 -130 5
-35 4 -38 -19 -38 -13 0 -24 -5 -24 -11 0 -5 -4 -7 -10 -4 -17 10 -11 25 10
25 11 0 20 2 20 4 0 12 -64 127 -77 137 -18 15 -33 -3 -33 -40 0 -23 -1 -23
-26 -6 -14 9 -34 25 -45 36 -31 31 -40 22 -19 -17 11 -19 25 -41 30 -47 50
-61 60 -77 52 -77 -5 0 -25 18 -43 41 -106 128 -300 312 -314 298 -2 -3 16
-24 40 -48 36 -34 43 -47 34 -57 -16 -19 -39 -18 -99 6 -28 11 -61 20 -73 20
-18 0 -15 -5 18 -27 22 -14 53 -40 69 -56 29 -30 29 -31 10 -46 -27 -22 -48
-92 -31 -103 7 -4 -3 -8 -25 -8 -54 0 -148 -39 -148 -60 0 -13 -6 -17 -20 -13
-22 6 -116 -25 -131 -43 -6 -8 1 -13 27 -17 47 -8 64 -23 64 -57 0 -23 -5 -30
-30 -35 -16 -4 -30 -13 -30 -20 0 -7 -6 -16 -12 -18 -7 -3 -1 -6 13 -6 15 -1
33 -9 40 -18 12 -15 12 -16 -5 -10 -11 4 -22 4 -25 0 -3 -4 -28 -19 -55 -33
-50 -26 -186 -144 -186 -162 0 -6 12 -8 30 -5 16 4 43 2 59 -4 28 -10 35 -7
88 38 79 67 114 91 165 109 48 18 190 45 197 38 12 -12 -23 -26 -85 -35 -83
-12 -150 -41 -229 -102 -59 -45 -94 -85 -192 -216 -26 -36 -54 -67 -61 -69
-21 -7 -2 23 66 104 33 39 63 81 67 93 6 19 3 21 -40 21 -25 0 -66 -5 -91 -11
-43 -11 -45 -13 -89 -105 -25 -51 -45 -97 -45 -101 -1 -4 -9 -26 -20 -48 -11
-22 -19 -45 -20 -52 0 -17 -28 -30 -83 -38 -38 -6 -52 -14 -69 -39 -12 -17
-35 -46 -50 -64 -24 -28 -27 -36 -17 -49 10 -12 10 -16 -2 -24 -16 -10 -119
-12 -143 -3 -19 7 -20 43 -5 98 9 33 8 42 -5 52 -24 17 -20 32 25 91 38 48 40
55 25 66 -15 11 -14 15 13 47 17 19 30 41 31 48 0 6 4 12 8 12 4 0 18 21 30
46 22 44 22 47 5 60 -17 12 -15 14 14 20 18 3 49 21 70 39 l38 33 -30 12 c-16
7 -64 15 -105 19 l-75 7 69 7 c38 3 72 10 75 15 3 5 19 15 36 23 44 21 44 45
-1 64 -20 8 -54 15 -75 15 -22 0 -39 4 -39 10 0 13 36 21 128 29 69 5 77 8 80
27 5 38 -35 36 -158 -6 -63 -22 -119 -45 -124 -50 -17 -17 -36 -11 -36 10 0
12 21 35 55 60 31 23 53 44 51 49 -3 4 6 20 19 35 25 30 42 31 158 13 34 -5
35 6 2 27 -29 19 -83 21 -120 4 -35 -16 -51 1 -27 28 25 26 52 67 52 76 0 5
-12 6 -27 2 -25 -5 -22 0 27 45 30 28 81 70 112 93 31 24 57 48 58 53 0 6 -19
9 -45 7 -56 -5 -135 39 -127 70 6 23 22 32 92 48 65 16 135 46 159 68 52 50
107 95 133 108 42 22 118 44 150 44 15 0 30 4 33 10 10 16 -113 1 -179 -22
-33 -11 -96 -42 -140 -68 -45 -27 -108 -56 -141 -65 -59 -17 -144 -59 -156
-78 -7 -10 -29 -1 -29 12 0 5 29 31 65 57 73 56 82 76 30 67 -44 -7 -48 17 -9
44 75 51 107 103 63 103 -24 0 -18 10 48 84 l42 47 -26 23 c-26 22 -26 25 -17
80 6 31 7 56 2 56 -4 0 -8 5 -8 10 0 6 7 10 15 10 9 0 14 8 12 22 -2 19 5 24
46 35 75 18 75 19 22 43 -27 12 -72 39 -100 60 -82 62 -116 62 -80 0 36 -63
10 -65 -63 -5 -30 25 -61 45 -69 45 -22 0 13 -54 65 -100 23 -21 42 -43 42
-49 0 -29 -166 32 -227 83 -28 24 -34 25 -39 11 -4 -9 1 -24 11 -35 21 -24 13
-26 -19 -5 -30 20 -137 31 -162 17 -16 -9 -13 -12 24 -18 28 -4 50 -16 65 -33
12 -14 41 -35 65 -45 49 -22 74 -46 47 -46 -9 0 -36 14 -60 31 -35 25 -50 30
-75 25 -47 -9 -88 -42 -92 -74 l-3 -27 -115 2 c-84 1 -108 -1 -90 -8 63 -25
110 -54 110 -67 0 -9 7 -24 17 -34 21 -23 14 -23 -109 7 -123 30 -153 32 -144
9 3 -9 6 -22 6 -31 0 -12 8 -13 40 -8 21 4 48 4 58 0 17 -5 18 -9 8 -30 -12
-28 -15 -29 -50 -15 -21 8 -27 6 -35 -9 -14 -25 -5 -31 40 -31 38 0 111 -23
137 -44 22 -16 -12 -24 -108 -25 -59 -1 -80 -4 -70 -11 13 -8 12 -10 -2 -10
-10 0 -18 -8 -18 -17 0 -13 17 -23 63 -38 60 -18 61 -19 27 -23 -19 -2 -42 -9
-50 -16 -8 -7 -33 -14 -54 -15 -55 -4 -168 -40 -161 -51 3 -6 16 -5 31 0 32
13 91 13 98 1 3 -5 28 -14 56 -21 27 -7 50 -15 50 -20 0 -4 -24 -11 -52 -14
-66 -9 -141 -41 -135 -58 4 -14 22 -14 104 -3 41 6 55 4 67 -8 21 -21 20 -24
-8 -39 -32 -18 -168 -140 -162 -146 3 -3 30 14 60 37 61 45 66 47 66 27 0 -8
5 -16 11 -18 22 -7 -19 -65 -101 -140 -44 -41 -80 -78 -80 -81 0 -11 18 -8 32
6 27 27 64 45 108 52 50 8 50 11 -12 -63 -16 -18 -28 -38 -27 -45 0 -9 2 -9 6
1 2 6 9 12 14 12 5 0 28 11 50 26 50 31 41 9 -21 -51 -23 -22 -64 -70 -91
-107 -44 -59 -54 -67 -87 -70 -29 -2 -40 -9 -51 -32 -13 -27 -12 -31 8 -47 12
-10 29 -15 36 -12 10 3 15 -2 15 -16 0 -25 -45 -73 -91 -96 -31 -17 -32 -18
-14 -31 10 -8 25 -14 33 -14 21 0 175 -51 187 -61 5 -5 -2 -9 -18 -9 -47 0
-131 -22 -116 -30 22 -12 109 -19 109 -9 0 5 5 9 11 9 15 0 -22 -60 -46 -73
-11 -6 -49 -14 -85 -17 l-65 -5 54 -39 c47 -35 63 -42 106 -45 10 -1 65 -45
65 -52 0 -3 -18 -3 -40 -1 -66 7 -74 -1 -45 -44 14 -20 39 -82 56 -138 18 -60
41 -111 55 -127 13 -14 24 -32 24 -40 0 -22 25 -42 94 -78 52 -28 55 -31 29
-31 -17 0 -56 9 -88 20 -32 11 -59 19 -60 18 -1 -2 27 -28 64 -58 112 -93 160
-161 74 -107 -40 25 -83 42 -83 33 0 -3 17 -21 37 -40 44 -40 39 -53 -12 -36
-28 9 -39 9 -51 -1 -29 -24 -12 -51 41 -69 65 -22 168 -74 183 -93 9 -10 -1
-8 -30 6 -23 12 -67 23 -97 25 -46 3 -61 0 -83 -18 -32 -25 -38 -46 -9 -31 10
6 21 8 24 5 3 -3 23 -6 44 -6 45 0 61 -7 42 -19 -21 -13 0 -28 72 -53 34 -12
64 -26 66 -31 3 -9 -131 -11 -264 -4 -64 3 -73 -4 -37 -28 29 -18 75 -21 164
-8 42 6 48 4 85 -30 l40 -37 -30 7 -30 7 24 -26 c18 -19 21 -26 9 -26 -8 0
-23 9 -33 20 -17 19 -19 19 -37 4 -22 -21 -23 -34 -3 -34 8 0 15 -5 15 -12 0
-9 3 -9 12 0 9 9 24 -1 65 -45 57 -63 68 -85 27 -58 -31 20 -43 12 -25 -16 16
-27 4 -40 -14 -15 -13 18 -14 17 -20 -6 -4 -14 -5 -44 -3 -69 2 -36 7 -45 24
-47 16 -2 24 4 32 25 9 27 10 27 17 -17 5 -34 2 -61 -13 -105 -22 -65 -20 -85
11 -85 12 0 32 -12 45 -27 l23 -28 -25 -8 c-14 -5 -28 -17 -31 -27 -3 -11 -9
-19 -13 -17 -17 5 -6 -21 20 -48 15 -16 44 -49 64 -72 l36 -43 -26 -10 c-14
-5 -26 -12 -26 -15 0 -4 11 -26 25 -51 31 -56 31 -62 -2 -70 -44 -11 -44 -12
-11 -72 65 -119 64 -94 14 -272 -18 -60 -20 -100 -8 -100 8 0 52 115 74 193
12 44 25 48 34 10 5 -18 0 -49 -14 -90 -12 -34 -22 -71 -22 -82 0 -23 16 -23
133 0 54 10 154 12 144 3 -3 -3 -41 -10 -84 -15 -43 -5 -103 -17 -133 -27
l-55 -19 -6 -79 c-3 -48 -16 -105 -31 -144 -28 -73 -27 -87 8 -100 13 -5 24
-18 24 -28 0 -41 -44 -148 -77 -188 -24 -30 -33 -49 -28 -63 6 -21 -31 -182
-49 -206 -6 -8 -35 -19 -64 -24 -43 -7 -61 -16 -96 -50 -23 -23 -66 -50 -94
-61 -68 -26 -85 -26 -77 0 8 27 -11 33 -63 21 l-42 -9 0 34 c0 19 -2 34 -5 34
-3 0 -34 -18 -68 -39 -53 -34 -64 -38 -77 -26 -13 12 -19 11 -40 -5 -22 -17
-50 -26 -50 -16 0 1 5 17 11 35 6 17 8 42 5 56 -6 22 -10 24 -54 20 -26 -2
-52 -4 -58 -5 -14 0 -36 -48 -29 -61 4 -5 15 -9 25 -9 14 0 18 -7 17 -27 -2
-25 1 -28 31 -28 28 0 34 -4 39 -26 4 -20 10 -25 24 -22 10 3 19 0 19 -6 0 -6
-6 -11 -13 -11 -16 0 -56 -29 -41 -30 6 0 26 11 45 25 40 29 140 77 147 71 2
-3 -21 -19 -52 -37 -57 -32 -64 -44 -34 -63 12 -7 40 -1 110 27 51 20 97 37
102 37 14 0 -25 -40 -71 -72 -47 -32 -54 -48 -23 -48 12 0 35 -7 52 -16 26
-13 29 -20 24 -44 -3 -17 -1 -30 6 -32 8 -3 8 -10 -1 -26 -15 -27 -5 -28 37
-2 33 20 33 20 27 1 -10 -31 11 -33 64 -6 51 25 101 33 101 15 0 -5 -6 -10
-13 -10 -21 0 -127 -71 -127 -85 0 -24 14 -24 85 1 81 28 108 26 50 -4 -46
-23 -125 -89 -125 -103 0 -24 36 -18 116 21 153 73 114 22 -53 -71 -90 -49
-116 -79 -71 -79 12 0 74 25 139 55 65 30 130 57 144 61 25 6 26 5 16 -15 -17
-31 -77 -67 -159 -95 -72 -25 -132 -55 -132 -67 0 -3 10 -10 23 -16 17 -8 38
-4 89 13 68 24 118 31 118 16 0 -4 -39 -23 -87 -42 -70 -28 -88 -39 -88 -55 0
-27 38 -23 151 15 46 15 84 24 84 20 0 -12 -44 -38 -102 -61 -62 -24 -88 -45
-88 -71 0 -22 -8 -23 80 7 77 26 110 31 110 16 0 -13 -78 -57 -128 -72 -42
-12 -70 -33 -55 -42 4 -2 40 2 80 8 84 15 174 62 191 100 7 15 17 23 22 20 6
-4 5 -14 -5 -28 -13 -19 -13 -23 3 -40 12 -15 14 -21 5 -24 -7 -3 -13 -10 -13
-16 1 -17 36 -57 52 -58 7 0 -8 -6 -35 -13 -59 -16 -64 -21 -43 -45 11 -12 16
-32 14 -59 -3 -36 -7 -42 -30 -48 -29 -6 -39 -24 -14 -24 8 0 16 -7 20 -15 8
-21 22 -19 47 6 25 25 55 21 51 -7 -7 -51 98 -47 331 11 103 26 137 30 137 17
0 -5 -35 -44 -77 -88 -75 -77 -81 -81 -173 -111 -52 -18 -128 -39 -169 -47
-79 -16 -102 -29 -84 -47 14 -14 154 6 253 37 41 13 116 44 165 69 94 47 131
56 121 30 -3 -8 0 -15 7 -15 32 -1 -103 -70 -202 -104 -107 -37 -148 -64 -120
-81 15 -10 75 3 88 19 7 8 20 12 30 9 10 -2 55 14 100 37 46 22 88 39 94 37
31 -10 -164 -137 -213 -137 -14 0 -39 -9 -56 -19 -17 -10 -42 -17 -55 -15 -32
6 -54 -9 -45 -31 5 -14 13 -16 39 -10 17 4 41 7 51 7 34 -1 120 26 166 52 42
24 110 35 110 18 0 -4 -49 -31 -110 -61 -60 -29 -110 -57 -110 -62 0 -6 -15
-7 -34 -4 -26 5 -35 3 -40 -10 -3 -9 -3 -21 0 -27 10 -15 86 0 152 29 60 27
240 131 282 163 l24 18 -24 21 c-14 11 -32 21 -40 21 -11 0 -12 2 -3 8 7 5 39
4 70 -1 53 -9 63 -7 112 17 58 27 76 32 66 16 -3 -5 -3 -21 1 -35 6 -23 11
-25 63 -26 73 -2 116 -11 117 -27 1 -6 2 -21 3 -32 1 -18 5 -20 36 -14 36 6
42 0 26 -26 -6 -8 -24 -14 -45 -13 -25 1 -36 -3 -36 -13 0 -8 10 -14 25 -14
14 0 25 5 25 10 0 6 9 10 20 10 13 0 18 -5 14 -14 -6 -17 50 -31 90 -24 21 4
25 0 31 -31 8 -42 32 -91 44 -91 26 0 41 15 47 46 6 34 24 48 24 18 0 -21 50
-114 62 -114 4 0 8 24 9 53 3 218 16 414 29 434 23 36 32 27 24 -22 -11 -79
-10 -173 4 -186 10 -11 12 -10 12 2 1 24 11 92 21 145 11 59 42 99 68 88 9 -4
31 -7 50 -6 51 3 60 -10 54 -81 -4 -61 -4 -62 14 -40 10 12 25 32 34 45 l16
22 38 -43 c29 -32 44 -42 62 -38 15 3 23 -1 23 -9 0 -18 15 -17 66 1 41 14 89
10 78 -6 -3 -5 -16 -9 -29 -9 -24 0 -95 -53 -85 -64 7 -6 85 16 97 28 4 4 8
13 8 19 0 5 6 12 13 15 14 4 16 -24 2 -33 -19 -12 1 -25 28 -18 24 6 26 5 13
-10 -7 -10 -9 -17 -3 -17 5 0 10 -12 10 -26 0 -28 22 -50 33 -33 3 6 9 -17 13
-50 4 -33 13 -64 19 -68 7 -5 19 -27 25 -50 9 -31 18 -43 31 -43 23 0 31 -19
31 -71 0 -21 5 -39 10 -39 6 0 8 19 4 48 -4 39 -2 51 16 70 26 28 34 28 54 -2
8 -14 42 -39 75 -56 81 -44 119 -87 132 -152 21 -107 103 -211 254 -323 18
-13 18 -14 2 -15 -60 -1 -142 65 -234 187 -30 40 -59 73 -64 73 -15 0 -10 -48
9 -78 34 -56 107 -138 180 -202 l75 -65 -34 -9 c-19 -6 -37 -14 -40 -19 -10
-14 2 -61 20 -78 31 -29 147 -83 162 -74 5 4 9 -1 9 -10 0 -14 -8 -16 -57 -10
-32 3 -78 8 -103 11 -53 5 -75 -5 -66 -34 5 -13 21 -24 52 -31 45 -11 52 -31
11 -31 -11 0 -37 -11 -56 -25 -32 -21 -41 -23 -79 -14 -24 5 -62 19 -84 30
-22 11 -42 19 -43 17 -5 -5 47 -58 86 -88 40 -30 86 -77 106 -107 l15 -23
1799 0 c1758 0 1799 0 1799 19 0 21 -22 33 -45 25 -8 -4 -15 -12 -15 -20 0 -8
-7 -14 -15 -14 -8 0 -15 5 -15 11 0 5 -17 17 -37 26 l-38 16 35 12 c19 6 36
19 38 28 5 24 -37 37 -119 37 -52 0 -69 3 -69 14 0 18 51 27 91 16 24 -7 35
-6 41 3 19 30 0 44 -65 49 -61 5 -93 22 -68 37 7 5 30 6 51 4 21 -3 40 -1 43
4 11 18 -9 32 -52 37 -50 6 -79 24 -59 37 7 5 37 9 66 9 45 0 53 3 50 18 -3
14 -18 18 -78 24 -152 14 -173 49 -31 52 81 1 82 1 79 26 -2 19 -10 26 -32 28
-16 2 -32 -1 -35 -6 -4 -6 -35 -4 -81 4 -41 7 -76 13 -77 14 -2 0 -3 11 -3 24
0 28 15 32 158 42 78 6 92 10 92 24 0 15 -13 18 -102 19 -124 2 -172 11 -176
33 -3 16 35 24 168 31 41 2 45 4 48 30 3 24 0 27 -27 27 -16 0 -33 -5 -36 -10
-6 -10 -106 -6 -165 6 -24 5 -24 6 -6 20 11 8 37 14 58 14 27 0 40 5 48 20 9
17 7 22 -15 30 -15 6 -44 10 -66 10 -26 0 -42 5 -46 15 -3 9 -3 18 0 21 5 6
51 12 100 13 19 1 27 6 27 20 0 15 -10 19 -55 23 -60 5 -87 20 -68 39 6 6 55
13 109 15 55 3 103 9 108 14 22 22 -11 30 -125 30 -109 0 -119 1 -119 19 0 20
49 31 141 31 27 0 49 4 49 8 0 22 -29 32 -90 32 -69 0 -140 15 -140 30 0 8 30
14 110 22 17 2 25 9 25 23 0 25 -37 32 -55 10 -16 -19 -30 -19 -30 -1 0 11
-15 16 -52 18 -48 3 -51 4 -35 19 10 11 43 20 87 24 58 6 70 10 70 25 0 16
-10 18 -82 18 -154 1 -152 0 -138 17 7 8 25 15 40 15 26 0 95 28 87 36 -2 2
-39 6 -84 9 -44 2 -87 7 -96 11 -30 11 -18 24 21 24 44 0 79 21 67 40 -5 8
-20 10 -47 6 -22 -4 -57 -1 -80 6 l-41 12 34 11 c23 8 34 18 34 31 0 15 -8 20
-45 22 -84 5 -93 21 -17 31 27 4 43 12 45 22 2 13 -11 17 -73 23 -42 4 -82 9
-90 13 -29 11 -14 22 33 25 40 3 47 6 50 26 3 20 0 22 -40 21 -24 0 -54 2 -68
4 -14 3 -31 6 -37 6 -27 2 -11 20 20 23 24 2 32 8 32 23 0 17 -9 21 -62 28
-68 9 -81 21 -33 31 19 3 30 12 30 22 0 12 -6 15 -21 11 -12 -3 -33 -1 -48 4
-25 10 -25 11 -7 25 11 8 27 14 36 14 12 0 17 9 17 31 0 37 10 45 76 52 28 4
54 12 58 19 7 10 11 10 21 0 18 -18 46 -15 58 7 15 29 -2 35 -115 39 -55 2
-104 7 -109 12 -14 13 14 41 38 39 12 0 54 -1 94 0 63 1 72 3 72 20 0 15 -11
19 -67 24 -38 4 -94 7 -125 7 -31 0 -59 4 -62 9 -10 16 29 38 68 39 45 2 61
13 53 36 -5 13 -15 15 -45 10 -48 -8 -82 8 -75 35 6 23 -10 34 -62 41 -54 7
-51 24 5 30 38 4 46 9 48 29 3 22 1 23 -30 18 -41 -7 -111 4 -109 18 1 6 15
10 31 11 43 0 61 21 36 40 -11 8 -32 14 -47 14 -39 0 -59 10 -52 26 3 9 19 14
42 14 41 0 61 14 61 43 0 16 -5 18 -27 14 -28 -5 -73 10 -73 24 0 8 19 14 65
21 12 2 20 11 20 23 0 13 -7 20 -20 21 -11 1 -33 2 -50 3 -58 3 -74 31 -21 36
32 4 46 13 46 30 0 14 -30 22 -95 24 -69 3 -61 22 13 31 42 4 47 8 50 33 3 24
0 27 -30 28 -18 1 -44 4 -58 8 -35 10 -12 21 58 28 83 9 98 43 19 43 -45 0
-95 26 -80 41 5 5 33 12 62 16 63 7 63 25 -1 34 -103 15 -112 53 -13 54 59 1
70 6 62 29 -5 12 -23 15 -85 14 -83 -1 -102 4 -102 28 0 10 12 14 38 14 21 0
43 5 49 11 19 19 3 39 -32 39 -18 0 -43 8 -56 18 l-22 19 33 11 c18 7 46 12
61 12 19 0 29 5 29 14 0 22 -19 30 -73 30 -39 1 -53 6 -69 26 l-19 24 23 9
c13 5 44 6 69 3 37 -5 48 -3 53 10 10 27 -4 37 -45 30 -21 -3 -40 -2 -43 3 -3
4 -26 14 -51 21 -33 9 -45 18 -45 31 0 16 8 19 43 19 29 0 52 7 66 19 28 24
20 41 -19 41 -43 0 -60 10 -60 34 0 20 5 23 43 22 39 -1 42 1 45 26 3 23 -2
30 -33 42 -41 17 -39 27 7 51 27 13 33 13 40 2 35 -64 143 -186 154 -175 13
14 -56 101 -159 201 -75 72 -102 103 -80 92 57 -27 64 -22 57 38 -5 45 -4 55
11 61 32 12 44 -8 75 -127 10 -37 34 -94 53 -127 52 -87 75 -162 82 -277 l7
-103 28 0 c15 0 32 -6 38 -13 6 -6 17 -55 26 -107 11 -62 23 -100 35 -111 10
-9 21 -36 25 -59 5 -34 12 -43 36 -52 26 -8 30 -15 30 -46 1 -85 16 -123 66
-173 27 -26 61 -51 75 -54 22 -6 29 -1 47 29 27 45 42 46 42 2 0 -59 11 -96
29 -96 22 0 41 -19 41 -42 0 -25 30 -36 42 -15 13 24 27 21 38 -8 l10 -25 145
0 c145 0 145 0 157 25 10 22 18 25 59 25 44 0 79 17 79 39 0 9 -49 21 -86 21
-13 0 -24 4 -24 8 0 15 56 41 76 36 12 -3 26 1 33 10 19 23 -1 43 -51 51 -35
6 -38 9 -26 22 8 8 33 20 54 28 26 9 39 19 39 32 0 14 -10 19 -47 23 -48 6
-78 23 -64 37 4 4 31 10 59 13 44 4 52 8 55 27 3 21 1 22 -40 17 -34 -5 -48
-2 -68 14 -27 22 -28 20 25 37 24 7 18 20 -20 46 -19 13 -35 27 -35 31 0 10
44 21 94 22 35 1 42 5 44 23 4 25 -16 31 -46 12 -12 -8 -27 -6 -54 5 -46 20
-48 29 -5 41 44 13 41 37 -5 48 -31 7 -38 14 -38 32 0 20 6 24 38 27 46 4 50
29 7 42 -31 9 -31 9 -28 75 4 77 14 92 43 66 17 -15 25 -17 38 -8 9 6 16 19
14 29 -1 11 -3 42 -5 71 -1 39 -7 56 -22 67 -25 18 -18 26 27 30 60 5 79 32
36 51 -28 12 -26 29 2 33 15 3 20 10 18 24 -3 21 -16 31 -52 42 -27 9 -3 34
37 38 42 4 44 37 4 56 l-29 14 31 19 c17 10 40 19 51 19 24 0 37 20 19 31 -8
5 -28 9 -46 9 -64 0 -45 28 30 45 39 8 32 35 -13 50 -42 14 -42 28 1 35 18 3
37 13 43 23 11 19 9 22 -41 54 -16 10 -15 12 14 18 39 9 49 30 23 52 -27 23
-25 43 3 43 23 0 47 16 47 32 0 4 -14 15 -30 23 -32 17 -32 35 1 35 10 0 19 5
19 10 0 6 18 10 40 10 45 0 49 8 20 35 -11 10 -20 13 -20 7 0 -19 -25 -14 -45
8 -20 22 -14 27 40 32 19 2 31 9 33 20 3 13 -8 20 -43 29 -56 14 -54 30 6 44
32 8 44 16 44 29 0 15 -9 20 -40 23 -48 5 -49 6 -36 32 7 12 17 18 26 15 9 -4
21 -2 28 4 6 6 25 12 41 14 40 4 43 23 6 38 -38 16 -38 25 0 39 31 10 42 41
15 41 -8 0 -15 4 -15 9 0 13 55 25 115 25 43 1 50 4 50 21 0 18 -6 20 -55 17
-63 -4 -110 10 -110 33 0 11 11 15 43 16 62 0 120 12 124 25 2 7 -11 17 -29
24 -32 13 -29 14 71 24 61 6 106 16 108 23 6 16 -8 22 -53 24 -126 4 -126 32
1 48 41 5 50 9 50 26 0 14 -8 21 -27 23 -38 4 -39 39 -2 44 34 4 56 34 34 48
-8 5 -25 10 -37 10 -16 0 -20 5 -16 19 4 15 17 21 55 26 30 4 52 13 55 22 8
20 -16 35 -45 28 -13 -3 -30 -1 -38 6 -22 18 2 39 45 39 37 0 61 14 61 35 0 6
-28 16 -61 22 -58 11 -89 26 -78 38 3 3 34 9 68 13 35 5 67 15 73 23 7 11 11
11 15 2 2 -7 20 -13 39 -13 26 0 34 4 34 19 0 16 -12 19 -116 24 -118 6 -141
13 -131 41 5 12 22 16 76 16 83 0 101 6 101 32 0 17 -5 18 -57 13 -32 -3 -74
-1 -93 4 -31 8 -32 9 -9 10 51 2 64 51 14 51 -13 0 -36 5 -52 11 -22 8 -24 12
-13 19 8 6 34 10 57 10 55 0 73 8 73 32 0 18 -5 20 -40 15 -45 -6 -100 11
-100 30 0 7 7 13 15 13 24 0 29 29 9 51 -17 19 -18 21 -1 30 23 14 21 36 -5
50 -20 11 -20 13 -5 24 30 21 20 44 -20 50 -78 13 -93 17 -93 25 0 9 50 20 92
20 32 0 50 27 27 41 -8 5 -40 9 -72 9 -67 0 -137 19 -137 37 0 8 12 13 28 13
30 0 52 16 52 37 0 7 -11 13 -25 13 -30 0 -85 26 -85 40 0 6 23 10 50 10 38 0
50 4 50 15 0 19 -39 35 -85 35 -39 0 -65 8 -65 21 0 5 8 9 18 9 10 0 27 6 38
14 28 21 7 38 -62 47 -91 12 -88 30 7 37 49 4 59 8 57 21 -2 11 -15 16 -38 17
-19 0 -68 4 -107 9 -55 6 -73 11 -73 23 0 12 9 14 45 9 37 -6 46 -3 55 13 15
28 13 30 -34 30 -25 0 -57 5 -73 11 l-28 11 23 18 c18 15 29 17 55 9 45 -13
47 -12 47 15 0 23 -3 25 -52 23 -52 -2 -118 17 -118 34 0 5 14 9 30 9 18 0 33
6 37 15 8 21 0 27 -44 34 -55 9 -51 35 7 41 31 3 46 10 48 21 2 13 -8 17 -48
21 -91 9 -92 48 -2 48 36 0 43 3 40 18 -2 12 -14 18 -38 20 -58 4 -80 12 -80
27 0 8 8 15 18 16 103 6 110 8 97 29 -4 6 -28 10 -53 9 -45 -1 -182 17 -191
26 -6 7 51 26 73 24 47 -3 66 2 66 16 0 23 -28 30 -64 17 -20 -8 -34 -8 -40
-2 -6 6 -29 10 -52 10 -42 0 -76 22 -54 35 5 3 15 3 21 0 6 -4 26 -4 45 0 26
4 34 11 32 23 -3 14 -20 18 -90 24 -145 11 -137 23 30 44 59 8 69 16 46 35
-13 10 -20 10 -44 -4 -18 -11 -31 -14 -35 -7 -3 5 -25 10 -48 10 -54 0 -122
19 -111 30 5 5 38 10 74 12 50 2 65 7 65 18 0 12 -18 16 -80 21 -161 12 -189
35 -56 46 59 5 71 9 69 22 -2 11 -16 17 -48 19 -78 4 -110 12 -110 28 0 8 13
17 30 21 54 10 31 23 -43 23 -77 0 -106 12 -86 37 7 8 33 13 64 13 96 0 175
12 175 26 0 11 -33 14 -162 15 -90 1 -233 4 -319 8 -156 6 -156 6 -148 28 l8
22 311 -6 c214 -4 310 -3 310 4 0 13 -24 23 -57 23 -36 0 -23 24 15 28 18 2
32 9 32 17 0 20 -24 25 -67 13 -23 -6 -63 -7 -103 -2 -81 10 -306 11 -315 2
-20 -20 14 -28 118 -28 62 0 107 -4 101 -9 -5 -4 -49 -14 -97 -20 -77 -10 -92
-10 -112 3 -13 9 -56 21 -96 27 -45 8 -81 20 -96 34 -25 20 -25 22 -9 59 22
53 21 56 -18 56 -50 0 -152 -79 -185 -142 -8 -16 -16 -26 -18 -24 -3 2 5 23
17 45 11 23 27 69 36 104 9 34 27 79 40 99 13 21 24 41 24 45 0 3 16 22 36 40
21 18 35 36 32 39 -3 3 -37 6 -76 7 -49 1 -75 7 -88 19 -18 15 -22 15 -59 -2
-42 -19 -66 -16 -43 5 7 8 38 27 68 43 30 17 55 37 55 44 0 7 4 19 8 26 5 7 4
12 -2 12 -6 0 -11 -4 -11 -10 0 -5 -4 -10 -10 -10 -21 0 -8 26 42 83 55 63 40
63 -27 1 -57 -54 -213 -154 -239 -154 -11 0 -31 11 -43 24 l-22 23 22 20 c12
10 48 38 80 61 31 24 57 50 57 58 0 16 36 73 55 86 5 4 6 8 1 8 -5 0 -41 -31
-80 -68 -77 -74 -148 -110 -238 -120 -63 -6 -62 8 3 55 29 20 47 39 41 41 -16
5 1 37 41 79 17 18 27 36 23 40 -5 5 -13 -1 -20 -12 -20 -37 -101 -110 -140
-129 -43 -20 -166 -35 -166 -19 0 5 19 14 43 21 54 15 110 49 101 63 -4 7 -27
8 -64 4 -57 -7 -145 9 -136 24 3 4 29 13 59 20 30 6 63 18 73 26 18 14 17 14
-8 15 -35 0 -158 -40 -158 -51 0 -5 -7 -9 -17 -9 -12 0 -9 6 12 24 40 34 25
46 -61 46 -77 0 -89 8 -51 35 19 13 20 17 7 25 -15 10 -45 13 -90 11 l-25 -2
24 21 c17 14 19 21 10 24 -33 12 -130 25 -143 20 -11 -4 -14 3 -13 28 2 33 2
33 -48 35 -114 4 -151 14 -168 43 -16 27 -16 28 4 33 12 3 18 10 14 16 -9 16
-45 13 -45 -3 0 -18 -14 -27 -46 -31 -18 -2 -24 3 -24 16 0 23 -19 25 -35 3
-10 -14 -15 -14 -33 -3 -12 7 -24 26 -27 41 -8 32 -21 35 -48 11 -18 -17 -20
-17 -41 10 -20 25 -24 26 -36 13 -16 -20 -46 -21 -54 -1 -4 11 -14 13 -37 8
l-31 -6 7 41 c5 34 3 42 -13 51 -16 8 -26 6 -47 -11z m239 -286 c3 -27 2 -82
-3 -123 -6 -41 -13 -146 -16 -234 -8 -205 -22 -322 -45 -360 -10 -16 -21 -59
-24 -95 -11 -100 -16 -120 -33 -120 -14 0 -15 13 -9 93 4 52 13 115 21 140 8
26 15 73 15 104 3 98 20 352 32 468 16 160 49 226 62 127z m-139 -134 c-20
-351 -36 -517 -54 -569 l-18 -54 -17 54 c-20 67 -20 106 -2 159 13 37 19 85
45 367 10 105 23 155 42 155 7 0 9 -33 4 -112z m317 -5 c39 -45 48 -80 47
-190 0 -112 -10 -208 -22 -220 -12 -11 -62 12 -59 27 6 25 11 86 17 190 5 96
0 145 -20 193 -5 11 -3 17 7 17 8 0 22 -8 30 -17z m-81 -218 c-2 -243 -14
-337 -46 -369 -29 -29 -33 -16 -14 44 6 19 15 147 20 283 5 137 12 254 16 260
17 28 26 -52 24 -218z m-3111 -115 c8 -5 11 -10 5 -10 -5 0 -17 5 -25 10 -8 5
-10 10 -5 10 6 0 17 -5 25 -10z m2360 -106 c0 -13 -4 -25 -9 -28 -13 -8 -21
-60 -22 -143 -1 -48 -6 -77 -15 -84 -8 -6 -11 -16 -7 -22 4 -6 9 -3 14 9 7 17
8 18 8 1 1 -24 -26 -50 -44 -43 -21 7 -29 67 -22 164 7 90 12 106 28 82 9 -13
10 -13 8 0 -1 8 -1 26 1 40 1 22 2 23 9 5 7 -16 9 -14 16 15 4 19 7 42 6 50
-1 11 3 10 14 -4 8 -11 15 -30 15 -42z m323 -60 c8 -106 -3 -320 -15 -302 -10
16 -8 399 2 393 4 -2 10 -43 13 -91z m1239 -176 c-22 -29 -74 -85 -115 -124
-83 -80 -133 -141 -123 -151 3 -4 12 -1 18 5 7 7 30 12 53 12 38 -1 39 -1 20
-16 -11 -9 -47 -29 -80 -45 -44 -21 -83 -53 -142 -116 -45 -48 -85 -84 -89
-80 -4 4 2 20 14 35 37 46 92 126 92 134 0 31 -120 -49 -149 -98 -10 -18 -10
-18 -11 1 0 11 14 35 30 53 17 18 30 42 30 53 0 10 5 19 11 19 6 0 25 11 43
25 18 14 40 25 49 25 9 0 18 4 22 10 3 5 12 7 19 4 15 -6 167 128 271 237 39
41 72 73 74 72 2 -1 -15 -26 -37 -55z m-664 -150 c-24 -50 -39 8 -15 59 l12
27 6 -34 c3 -19 1 -43 -3 -52z m1213 -15 c-12 -20 -14 -14 -5 12 4 9 9 14 11
11 3 -2 0 -13 -6 -23z m-1146 -13 c3 -5 35 -10 71 -10 58 0 64 -2 64 -20 0
-11 -11 -38 -24 -59 -32 -49 -60 -112 -80 -178 -19 -61 -19 -66 -6 -58 6 4 8
11 5 16 -4 5 0 9 8 9 8 0 18 10 22 23 4 14 8 17 12 9 3 -7 -8 -29 -24 -50 -15
-20 -27 -40 -25 -44 1 -5 -3 -8 -8 -8 -18 0 -60 48 -60 68 0 26 38 148 57 186
13 25 13 30 0 44 -14 13 -17 10 -27 -29 -7 -24 -18 -71 -25 -104 -19 -89 -22
-94 -63 -97 -34 -3 -38 -6 -43 -38 -6 -33 -14 -18 -11 20 19 228 21 244 40
269 10 14 28 27 40 29 11 2 26 10 32 18 14 16 36 18 45 4z m1066 -103 c-60
-74 -204 -205 -371 -337 -136 -109 -138 -110 -117 -79 18 26 53 56 274 235
131 106 253 226 253 248 0 5 3 7 6 3 4 -3 -17 -35 -45 -70z m-423 -56 l43 -17
-41 -23 c-22 -12 -61 -38 -85 -57 -25 -19 -45 -29 -45 -24 0 18 41 51 92 75
27 13 45 26 40 29 -6 3 -36 12 -69 20 -55 14 -56 14 -18 15 22 0 59 -8 83 -18z
m-2182 -87 c-8 -30 -48 -94 -58 -94 -5 0 -8 19 -8 42 0 52 46 122 62 93 6 -9
7 -28 4 -41z m2639 -123 c-6 -5 -50 -32 -100 -59 -117 -66 -236 -139 -289
-178 l-43 -31 -34 17 -34 18 37 -1 c27 -1 47 7 75 29 46 37 120 79 273 155
121 61 130 64 115 50z m804 -78 c-20 -32 -53 -51 -74 -42 -19 7 -19 8 3 8 20
1 26 9 20 28 -2 4 11 11 27 14 17 4 31 7 33 8 1 0 -3 -7 -9 -16z m-2458 -226
c17 -64 28 -73 50 -40 16 24 19 25 18 8 0 -11 -4 -29 -8 -39 -5 -12 1 -40 15
-75 13 -31 31 -89 40 -128 18 -73 38 -102 28 -40 -3 17 -9 57 -14 87 -20 120
-21 142 -8 138 32 -11 52 -72 56 -170 3 -54 1 -106 -3 -115 -6 -17 -7 -17 -21
1 -13 18 -14 16 -14 -26 0 -35 6 -51 26 -73 23 -25 25 -34 20 -73 -3 -25 -21
-83 -40 -131 -19 -47 -34 -86 -33 -87 1 -1 27 34 57 79 l55 82 6 135 c7 146
15 193 33 187 7 -2 13 -49 16 -131 5 -124 6 -128 23 -108 10 11 26 41 36 68
24 62 41 68 41 14 0 -31 -17 -74 -75 -186 -41 -80 -75 -149 -75 -155 0 -20 58
22 73 53 18 36 104 138 117 138 12 0 -28 -79 -56 -113 -13 -16 -22 -33 -18
-38 7 -12 34 -12 34 1 0 6 6 10 14 10 7 0 16 9 19 19 4 16 72 61 92 61 7 0
-21 -35 -67 -83 -30 -32 -37 -46 -34 -71 2 -17 8 -31 14 -31 6 0 48 34 94 76
46 42 97 87 113 101 40 32 155 101 161 96 2 -3 -26 -26 -64 -51 -82 -58 -292
-259 -274 -265 7 -2 12 -21 12 -47 0 -43 0 -44 -37 -47 l-38 -3 52 -18 c63
-22 101 -52 78 -61 -41 -15 12 -64 58 -52 31 7 107 -22 87 -34 -17 -11 -4 -30
21 -30 11 0 17 -4 14 -10 -9 -14 -5 -13 79 19 42 16 76 27 76 25 0 -10 -120
-81 -158 -93 -45 -15 -56 -31 -21 -31 11 0 18 -4 14 -9 -3 -5 12 -19 34 -32
27 -15 46 -37 62 -70 14 -27 31 -48 40 -49 9 0 22 -8 30 -17 18 -22 53 -122
46 -129 -3 -3 5 -21 19 -41 22 -33 22 -36 7 -60 -13 -20 -22 -24 -46 -19 -23
5 -27 3 -19 -7 6 -7 7 -19 3 -26 -6 -10 -20 -4 -57 24 -38 30 -54 36 -79 32
-16 -3 -46 -9 -65 -12 -33 -6 -34 -6 -16 9 20 16 20 16 -1 16 -11 0 -26 -7
-33 -15 -6 -8 -31 -25 -54 -39 -42 -24 -44 -25 -102 -11 -92 22 -137 19 -173
-10 -16 -14 -33 -35 -36 -45 -4 -11 -14 -20 -22 -20 -14 0 -13 4 4 23 35 39
39 51 14 44 -12 -3 -38 1 -56 9 -47 19 -82 18 -116 -6 l-28 -21 -40 21 c-51
25 -74 25 -128 -1 -33 -16 -43 -26 -43 -45 0 -28 -11 -30 -46 -8 -35 23 -146
15 -208 -16 -25 -13 -46 -28 -46 -33 0 -18 55 -52 100 -63 58 -13 98 -11 136
9 16 8 47 20 70 26 22 6 49 20 60 32 18 20 18 20 -7 14 -18 -4 -28 -2 -31 7
-4 10 9 13 56 12 34 -1 72 -4 84 -8 15 -5 22 -4 20 4 -2 7 5 17 14 23 16 11
73 -21 202 -115 l39 -28 -31 -6 c-18 -4 -30 -10 -27 -13 5 -9 -50 -29 -92 -33
-43 -4 -41 13 5 37 20 11 39 21 42 23 2 2 -2 7 -10 12 -23 15 -61 11 -105 -8
-35 -16 -39 -22 -41 -56 -1 -45 -11 -53 -79 -61 -144 -18 -134 -13 -137 -53
-3 -40 -19 -49 -64 -38 -36 9 -76 76 -72 121 3 36 2 38 -42 51 -25 8 -48 14
-52 14 -17 0 -6 -38 16 -59 15 -14 22 -29 19 -39 -4 -10 -2 -13 5 -8 7 4 10 2
6 -7 -4 -11 -13 -12 -45 -3 -35 9 -45 7 -97 -19 -59 -30 -92 -59 -92 -82 0
-17 4 -16 42 3 39 20 98 14 134 -15 l27 -21 -74 0 c-106 0 -122 -18 -48 -50
23 -10 22 -10 -6 -5 -29 5 -29 5 -10 -11 11 -8 19 -20 17 -25 -1 -5 8 -9 19
-9 12 0 39 -18 61 -41 27 -28 32 -37 16 -28 -13 6 -30 18 -39 25 -8 8 -43 17
-76 20 -59 6 -60 6 -59 -17 1 -13 5 -30 9 -36 6 -9 2 -13 -12 -13 -12 0 -21
-4 -21 -9 0 -6 -17 -11 -37 -13 -26 -2 -38 -8 -38 -18 0 -11 15 -16 63 -18 44
-2 65 -7 69 -17 3 -8 13 -15 22 -16 9 0 4 -6 -14 -14 -23 -11 -26 -14 -10 -15
14 0 16 -3 8 -8 -10 -6 -4 -23 22 -66 42 -69 48 -128 14 -119 -12 3 -38 23
-59 43 -56 55 -81 70 -115 70 -32 0 -67 -18 -50 -26 6 -3 48 -20 95 -37 82
-31 85 -34 88 -66 l3 -34 -53 7 c-29 3 -70 9 -92 13 -54 9 -45 -15 17 -45 48
-23 197 -166 197 -188 0 -7 -13 -10 -32 -7 -18 2 -49 -3 -68 -11 -19 -9 -54
-20 -78 -26 -44 -11 -49 -30 -8 -30 52 0 115 -32 158 -79 24 -27 53 -53 65
-60 13 -6 22 -15 21 -19 -1 -4 3 -17 10 -28 6 -12 8 -24 4 -28 -3 -4 0 -11 8
-17 12 -8 10 -13 -15 -32 -47 -34 -105 -96 -105 -111 0 -17 -22 -26 -59 -26
-15 0 -36 -6 -47 -14 -18 -14 -18 -15 -1 -22 10 -3 37 -4 60 -1 33 4 47 1 66
-14 l25 -20 -85 -85 c-46 -47 -100 -95 -119 -106 -19 -12 -51 -38 -71 -60 -23
-23 -46 -38 -61 -38 -13 0 -68 -29 -122 -65 -107 -70 -154 -86 -175 -62 -17
21 8 78 40 93 13 6 40 18 59 27 l35 16 -37 0 c-27 1 -42 8 -57 27 l-21 27 -23
-24 c-12 -13 -45 -67 -71 -119 -66 -130 -106 -169 -141 -140 -19 16 -19 40 0
40 16 0 47 63 33 68 -4 2 -8 10 -8 18 0 23 -15 16 -34 -17 -15 -26 -23 -30
-46 -25 -32 6 -55 -14 -65 -57 -12 -45 -24 -41 -31 10 -6 47 -6 48 -42 48 -41
-1 -62 -10 -62 -28 0 -7 4 -6 10 3 7 12 12 12 22 2 6 -6 23 -12 36 -12 18 0
23 -4 18 -17 -4 -9 -3 -19 1 -22 4 -3 -7 -22 -24 -41 l-33 -34 0 36 c0 30 -5
39 -27 50 -16 8 -28 22 -28 32 0 25 -32 35 -66 22 -37 -13 -63 7 -54 43 3 14
7 43 8 64 2 36 1 38 -23 34 -14 -3 -43 -8 -65 -12 l-40 -8 39 41 38 40 -20 20
c-11 11 -17 24 -14 27 10 11 -38 -5 -78 -25 -89 -46 -157 -146 -223 -330 -4
-10 -6 -7 -6 7 -1 12 12 59 28 103 44 119 118 206 254 299 27 18 46 35 44 38
-10 10 -77 -10 -93 -28 -19 -21 -50 -25 -56 -8 -2 7 -12 7 -32 -2 -24 -12 -30
-11 -41 4 -7 9 -15 17 -17 17 -9 0 -84 -103 -106 -145 -11 -22 -28 -49 -36
-60 -28 -35 31 112 70 176 21 33 35 61 33 63 -2 2 -17 6 -32 10 -25 6 -34 1
-65 -34 -20 -22 -59 -79 -86 -127 -27 -49 -60 -107 -73 -130 -25 -46 -49 -58
-38 -20 9 28 132 260 160 300 10 14 10 25 2 48 -11 27 -15 29 -68 29 -43 0
-60 5 -73 19 -24 26 -13 57 26 77 17 9 60 36 97 61 36 25 81 52 99 60 18 7 30
18 27 24 -4 5 -1 16 5 24 38 46 -100 -24 -180 -91 -30 -25 -80 -62 -110 -82
-30 -19 -86 -62 -125 -96 -104 -90 -116 -96 -55 -32 63 67 214 190 361 295
103 74 189 112 284 126 24 4 50 13 56 21 8 10 8 14 0 14 -6 0 -11 5 -11 10 0
6 11 8 25 4 15 -4 25 -2 25 5 0 7 21 11 53 11 43 0 61 5 90 28 31 23 85 82 75
82 -2 0 -32 -9 -66 -20 -35 -11 -76 -20 -90 -20 -23 1 -18 6 33 35 33 18 65
37 70 42 6 4 23 15 39 23 40 21 148 128 136 135 -22 14 -10 35 20 35 29 0 40
13 20 25 -7 4 -7 13 0 25 6 11 10 23 9 27 -6 36 38 91 93 115 30 14 32 17 22
42 -5 14 -10 13 -36 -7 -39 -29 -125 -114 -131 -130 -3 -7 -6 -5 -6 6 -1 9 -3
17 -4 17 -11 0 -73 -35 -79 -44 -5 -7 -12 -4 -21 7 -10 15 -22 18 -60 14 -26
-3 -47 -3 -47 1 0 4 21 18 47 32 54 29 63 44 33 60 -19 10 -27 8 -56 -21 -19
-18 -34 -41 -34 -51 0 -9 -10 -28 -22 -40 -121 -124 -132 -184 -25 -135 28 13
77 44 107 69 46 38 57 43 68 32 10 -11 10 -14 -3 -14 -8 0 -15 -5 -15 -11 0
-19 -61 -89 -90 -104 -16 -8 -50 -22 -77 -31 -61 -20 -125 -63 -119 -80 3 -9
-1 -11 -12 -8 -14 5 -15 4 -2 -5 8 -6 22 -11 31 -11 24 0 32 -29 15 -55 -20
-30 -99 -49 -168 -40 -45 6 -138 40 -138 50 0 2 35 3 78 2 57 -2 88 3 119 17
49 22 47 36 -4 36 -27 0 -34 3 -29 15 4 12 -6 15 -57 15 -60 0 -65 2 -102 40
-21 22 -35 43 -31 47 4 5 37 7 72 6 55 -1 65 1 62 15 -2 9 -25 27 -52 41 -53
28 -54 29 -87 106 -11 28 -25 59 -31 70 -6 14 -5 31 3 50 6 17 12 39 13 51 1
19 -2 20 -37 13 -22 -4 -42 -11 -46 -15 -13 -18 -142 -30 -168 -16 -17 9 -18
18 -13 66 4 34 15 67 28 85 12 17 22 32 22 34 0 3 -20 2 -45 -1 -63 -7 -79 9
-71 70 6 46 6 48 -19 48 -33 0 -32 19 1 70 15 22 25 41 23 43 -2 1 -12 7 -22
12 -14 7 -20 25 -23 62 -2 29 0 55 6 58 22 14 10 36 -17 33 -24 -3 -28 1 -28
22 0 19 12 32 55 58 l55 34 -50 -6 c-27 -3 -62 -9 -77 -12 -24 -5 -29 -2 -40
22 -18 44 -18 72 -1 78 8 4 13 13 10 20 -8 21 17 26 48 10 31 -16 160 -20 150
-4 -3 6 -30 10 -58 10 -69 0 -81 8 -67 46 6 16 18 36 26 46 13 13 13 20 3 36
-11 18 -10 24 4 40 15 16 24 17 88 9 38 -5 82 -5 97 -1 26 7 25 7 -13 15 -22
4 -61 8 -87 8 -43 1 -48 3 -48 24 0 13 6 31 13 41 11 15 19 16 57 7 25 -6 66
-11 91 -11 37 0 50 -5 75 -31 16 -17 42 -38 59 -46 l30 -16 -40 -14 c-73 -24
-72 -24 -30 -41 22 -9 60 -29 84 -44 63 -40 104 -37 204 13 107 54 179 100
216 140 36 38 39 49 10 49 -18 0 -19 2 -9 15 7 8 22 15 34 15 43 1 140 120
117 143 -6 6 -11 8 -11 4 0 -4 -9 -3 -20 3 -11 6 -20 17 -20 26 0 11 -10 10
-47 -9 -88 -44 -101 -9 -18 48 30 21 55 40 55 42 0 16 -53 -8 -135 -61 -75
-50 -113 -69 -167 -81 -38 -8 -74 -12 -81 -8 -7 4 -47 6 -91 4 -58 -2 -81 0
-87 10 -17 28 -8 37 49 48 50 10 148 58 138 68 -2 2 -24 -6 -50 -17 -26 -12
-78 -24 -119 -26 -113 -9 -114 4 8 -146 7 -9 40 -22 72 -28 64 -13 83 -24 83
-48 0 -8 7 -24 17 -34 18 -20 17 -21 -57 -18 -62 2 -133 26 -163 56 -22 22
-36 25 -127 31 -122 7 -135 16 -131 90 3 69 9 81 39 86 25 4 24 4 -5 6 -22 0
-33 6 -33 16 0 12 16 15 86 15 l86 0 -4 25 c-3 14 -4 25 -3 25 1 0 25 -7 53
-15 47 -14 108 -13 135 2 5 3 -16 16 -47 28 -31 13 -72 35 -91 49 -19 15 -52
33 -72 40 -37 13 -37 13 -14 25 13 7 36 10 52 7 34 -7 36 2 9 46 -26 43 -27
68 -2 45 10 -10 24 -17 31 -17 7 0 10 -4 7 -9 -6 -8 17 -19 59 -27 12 -2 25 3
32 15 10 16 5 23 -38 55 -27 22 -77 46 -114 58 -101 30 -101 72 -1 61 79 -10
111 -28 162 -94 38 -49 50 -60 68 -55 11 4 49 -2 84 -11 52 -15 62 -21 62 -40
0 -49 147 -44 288 11 52 20 107 36 123 36 16 0 29 5 29 10 0 6 -6 10 -13 10
-28 0 -36 21 -21 57 8 18 21 80 29 136 22 161 40 203 82 195 30 -6 39 -51 18
-98 -23 -50 -12 -66 11 -16 15 30 23 36 50 36 l32 0 -5 -60 c-6 -57 8 -110 27
-110 10 0 28 73 35 143 4 31 11 57 16 57 5 0 14 11 18 23 10 25 67 55 79 42 4
-4 1 -10 -5 -12 -20 -7 -15 -21 8 -28 15 -5 18 -10 10 -18 -6 -6 -11 -23 -11
-37 0 -14 -5 -31 -12 -38 -7 -7 -9 -12 -6 -12 14 0 75 30 98 48 45 35 92 54
154 63 59 8 62 7 83 -19 l22 -27 1 38 c0 21 -5 47 -10 57 -13 23 5 37 25 20
16 -13 40 -91 50 -162 4 -32 11 -48 21 -48 8 0 14 -7 14 -15 0 -8 3 -15 8 -15
9 0 0 133 -19 267 -7 51 -10 96 -6 99 4 4 14 1 23 -7 32 -26 53 -93 60 -189 5
-67 12 -101 23 -115 10 -11 32 -43 49 -71 33 -52 90 -110 99 -100 3 3 -9 23
-26 44 -57 73 -81 138 -81 225 0 59 -6 95 -27 150 -28 76 -35 129 -18 136 23
9 87 -144 119 -284 16 -68 56 -145 76 -145 15 0 12 34 -9 103 -10 34 -26 102
-35 151 -10 49 -24 102 -32 118 -28 54 -13 60 42 18 56 -43 66 -67 79 -195 8
-77 24 -127 38 -122 23 7 20 131 -10 335 -5 38 -4 42 15 42 27 0 48 -69 92
-310 6 -35 18 -76 25 -90 l13 -25 6 25 c4 14 -9 105 -29 203 -38 196 -41 224
-21 249 12 17 14 17 28 0 9 -9 18 -24 22 -32 3 -8 4 -4 2 9 -9 44 36 72 47 31
3 -11 13 -20 22 -20 19 0 45 23 45 40 0 22 34 5 56 -27 12 -18 41 -78 65 -135
23 -57 46 -107 51 -113 17 -20 -6 95 -43 213 -22 68 -39 142 -39 166 0 71 22
73 41 3z m-1852 -390 c11 -9 15 -9 18 1 3 6 9 10 14 6 16 -10 9 -24 -12 -24
-11 0 -42 -10 -70 -21 -40 -17 -52 -19 -64 -9 -20 17 -19 47 3 59 20 12 91 4
111 -12z m-450 -25 c-20 -40 -46 -72 -52 -66 -7 8 14 67 27 76 7 5 7 8 1 9 -5
0 -1 4 10 8 28 12 31 6 14 -27z m450 -317 c31 1 71 5 89 9 42 11 41 0 -5 -52
-65 -72 -145 -90 -218 -49 -38 21 -40 25 -43 75 -3 43 0 52 14 52 10 0 14 5
11 14 -3 8 16 1 45 -17 42 -26 61 -32 107 -32z m-719 -15 c0 -18 -26 -40 -49
-40 -19 0 -12 28 11 44 30 21 38 20 38 -4z m427 -25 l13 -39 -35 34 c-40 39
-44 53 -13 48 14 -2 25 -15 35 -43z m3193 -853 c-14 -9 -56 -44 -93 -76 -117
-100 -190 -156 -196 -151 -8 8 94 109 182 181 54 44 87 64 105 63 l27 0 -25
-17z m2480 -162 c0 -5 -9 -10 -20 -10 -11 0 -20 5 -20 10 0 6 9 10 20 10 11 0
20 -4 20 -10z m-3755 -740 c-3 -5 -15 -10 -26 -10 -10 0 -19 5 -19 10 0 6 12
10 26 10 14 0 23 -4 19 -10z m-96 -16 c26 -5 31 -11 31 -35 0 -38 -31 -47 -79
-23 -47 24 -55 36 -34 52 19 14 36 15 82 6z m336 -23 c-11 -19 -93 -42 -136
-39 -44 3 -44 3 36 24 95 25 108 27 100 15z m-1525 -71 c0 -5 -4 -10 -10 -10
-5 0 -10 5 -10 10 0 6 5 10 10 10 6 0 10 -4 10 -10z m0 -30 c0 -4 -7 -10 -15
-14 -8 -3 -15 -15 -15 -27 0 -12 -3 -20 -6 -16 -4 3 -26 -9 -49 -28 -77 -64
-75 -42 5 43 48 52 80 68 80 42z m-629 -360 c26 -15 24 -49 -3 -59 -26 -10
-120 -24 -100 -15 6 3 9 10 6 16 -6 9 53 67 69 68 5 0 17 -5 28 -10z m3686 4
c-3 -3 -12 -4 -19 -1 -8 3 -5 6 6 6 11 1 17 -2 13 -5z m48 -32 c-3 -3 -11 0
-18 7 -9 10 -8 11 6 5 10 -3 15 -9 12 -12z m71 -43 c3 -6 -5 -3 -20 6 -14 10
-26 19 -26 22 0 7 39 -17 46 -28z m-382 -322 c17 -13 69 -45 116 -72 78 -43
200 -146 200 -169 0 -5 -23 12 -50 38 -28 26 -67 54 -88 62 -36 15 -111 52
-160 79 -20 11 -62 65 -62 80 0 10 14 4 44 -18z m-59 -43 c38 -30 96 -114 78
-114 -33 0 -173 131 -173 162 0 12 52 -13 95 -48z m510 16 c7 -12 -2 -12 -30
0 -19 8 -19 9 2 9 12 1 25 -3 28 -9z m-578 -138 c-25 -5 -47 21 -40 48 4 16 8
15 33 -13 28 -31 28 -32 7 -35z m233 -42 c13 -8 13 -10 -2 -10 -9 0 -20 5 -23
10 -8 13 5 13 25 0z m-2240 -184 c0 -3 -4 -8 -10 -11 -5 -3 -10 -1 -10 4 0 6
5 11 10 11 6 0 10 -2 10 -4z m-1260 -41 c0 -3 -22 -40 -50 -83 -61 -94 -65
-85 -8 15 35 62 58 89 58 68z m1212 -47 c-7 -7 -12 -8 -12 -2 0 14 12 26 19
19 2 -3 -1 -11 -7 -17z m2728 -48 c0 -13 -20 -13 -40 0 -12 8 -9 10 13 10 15
0 27 -4 27 -10z m-3720 -39 c0 -5 -14 -19 -30 -31 -17 -12 -58 -58 -92 -103
-62 -82 -108 -135 -93 -107 65 116 170 250 196 250 10 0 19 -4 19 -9z m540
-31 c0 -11 -40 -11 -85 0 -25 6 -20 8 28 9 32 0 57 -3 57 -9z m904 -35 c20 -8
71 -46 114 -83 131 -112 156 -132 170 -132 6 0 12 -4 12 -8 0 -17 127 -53 192
-55 52 -2 70 2 87 17 30 27 18 36 -47 36 -83 1 -136 16 -173 50 -19 16 -39 30
-45 30 -6 0 -17 7 -24 15 -9 10 -9 15 -1 15 6 0 11 -4 11 -9 0 -22 133 -48
315 -61 64 -5 123 -14 140 -23 23 -12 41 -13 75 -7 59 12 82 12 76 1 -4 -5
-25 -12 -49 -16 -23 -4 -73 -22 -112 -40 -124 -59 -173 -68 -322 -63 -73 3
-139 10 -146 16 -8 7 -26 8 -52 2 -92 -22 -198 -1 -268 53 l-34 26 -1 -44 c-1
-52 -19 -89 -60 -129 -24 -22 -36 -27 -56 -22 -36 9 -35 58 2 117 32 49 75 99
87 99 18 0 34 38 35 81 0 63 17 75 57 41 59 -51 71 -60 92 -72 29 -15 26 -2
-5 26 -14 13 -21 24 -17 24 4 0 3 4 -2 8 -6 4 -23 26 -39 50 -16 24 -41 50
-55 57 -36 20 -4 19 43 0z m-1254 -90 c-16 -33 -30 -55 -30 -50 0 21 20 79 36
104 30 44 25 9 -6 -54z m1494 3 c6 -4 7 -10 3 -14 -12 -13 -49 35 -42 54 6 15
9 13 18 -8 6 -14 16 -28 21 -32z m-253 -273 c14 9 10 -7 -6 -29 -20 -26 -29
-15 -19 26 5 21 9 27 12 15 2 -9 8 -15 13 -12z m-2526 -325 c-3 -5 -11 -10
-16 -10 -6 0 -7 5 -4 10 3 6 11 10 16 10 6 0 7 -4 4 -10z m-59 -405 c2 -18 -3
-25 -17 -25 -12 0 -19 7 -19 18 0 39 34 45 36 7z m331 -11 c-3 -3 -12 -4 -19
-1 -8 3 -5 6 6 6 11 1 17 -2 13 -5z m545 -26 c-7 -7 -12 -8 -12 -2 0 14 12 26
19 19 2 -3 -1 -11 -7 -17z m-313 -354 c-14 -17 -35 -18 -42 -1 -3 8 6 12 24
13 23 1 27 -2 18 -12z m2244 -161 c-13 -2 -33 -2 -45 0 -13 2 -3 4 22 4 25 0
35 -2 23 -4z m-79 -12 c3 -5 30 -12 61 -16 30 -3 57 -11 60 -16 10 -16 -41
-11 -173 17 -13 2 -20 9 -17 14 8 12 62 13 69 1z m31 -89 c62 -20 64 -21 42
-37 -14 -10 -27 -10 -70 2 -61 18 -72 26 -63 48 4 11 12 15 24 10 9 -4 40 -14
67 -23z m-76 -132 c-12 -32 -33 -40 -43 -14 -12 32 -6 44 23 44 29 0 30 -1 20
-30z"/>
<path d="M6800 7586 c0 -9 5 -16 10 -16 6 0 10 4 10 9 0 6 -4 13 -10 16 -5 3
-10 -1 -10 -9z"/>
<path d="M5993 6760 c14 -64 35 -123 36 -101 1 29 -19 102 -32 116 -6 6 -8 1
-4 -15z"/>
<path d="M6162 6485 l1 -100 8 68 c6 41 5 82 0 100 -7 25 -9 8 -9 -68z"/>
<path d="M6273 6463 c-7 -54 -19 -117 -27 -140 -18 -52 -9 -55 22 -9 42 61 53
146 29 214 -12 32 -13 29 -24 -65z"/>
<path d="M5225 6381 c-13 -12 -57 -17 -72 -8 -6 4 -17 2 -25 -5 -7 -7 -22 -13
-33 -13 -11 0 -20 -6 -20 -14 0 -17 52 -34 61 -20 3 5 27 19 55 30 27 12 49
25 49 30 0 11 -4 11 -15 0z"/>
<path d="M4726 6293 c-10 -34 -27 -144 -25 -161 1 -9 -1 -24 -4 -32 -3 -8 -7
-26 -9 -39 -3 -22 -12 -27 -78 -41 -41 -10 -119 -29 -172 -45 -80 -22 -96 -31
-95 -46 2 -25 28 -24 97 1 30 11 65 20 77 20 12 0 70 20 127 45 58 25 117 45
131 45 23 0 25 4 25 40 0 22 9 63 20 92 26 69 26 103 -2 122 -31 22 -85 21
-92 -1z"/>
<path d="M5134 6294 c-18 -14 -18 -15 6 -8 31 8 50 24 29 24 -8 0 -24 -7 -35
-16z"/>
<path d="M4895 6157 c-3 -23 -11 -57 -16 -74 -8 -26 -7 -37 5 -55 14 -20 14
-24 0 -46 -19 -29 -12 -49 22 -62 35 -14 39 -8 19 29 -15 30 -15 32 8 54 14
12 45 37 71 56 25 18 46 37 46 42 0 5 -22 20 -49 34 -27 13 -52 29 -56 35 -3
5 -14 14 -25 20 -16 9 -19 5 -25 -33z"/>
<path d="M5110 5979 c0 -5 9 -9 20 -9 11 0 20 2 20 4 0 2 -9 6 -20 9 -11 3
-20 1 -20 -4z"/>
<path d="M4980 5974 c0 -5 63 -34 75 -34 15 0 2 18 -20 28 -27 13 -55 16 -55
6z"/>
<path d="M4242 5938 c-7 -7 -12 -15 -12 -19 0 -10 58 10 66 22 8 14 -40 11
-54 -3z"/>
<path d="M4247 5834 c-26 -20 -47 -40 -47 -44 0 -11 80 -1 111 15 28 15 29 16
13 40 -9 14 -20 25 -24 25 -3 0 -28 -16 -53 -36z"/>
<path d="M6711 5831 c-10 -6 -3 -12 25 -21 22 -7 60 -24 85 -38 30 -17 52 -23
65 -18 15 6 2 15 -61 47 -85 42 -92 44 -114 30z"/>
<path d="M5088 5513 c6 -2 18 -2 25 0 6 3 1 5 -13 5 -14 0 -19 -2 -12 -5z"/>
<path d="M6813 5433 c9 -2 25 -2 35 0 9 3 1 5 -18 5 -19 0 -27 -2 -17 -5z"/>
<path d="M6083 5398 c-143 -38 -191 -61 -189 -93 1 -22 4 -23 41 -18 22 2 60
16 84 29 24 13 50 24 57 24 17 0 18 12 3 27 -9 9 -7 11 7 7 11 -3 61 -1 113 4
70 7 109 6 158 -4 35 -7 71 -10 80 -7 10 4 14 2 10 -4 -4 -6 3 -13 16 -17 35
-9 155 -7 162 3 3 5 17 8 31 5 15 -3 23 -1 19 5 -3 6 6 9 25 6 19 -2 28 0 24
7 -4 6 1 8 15 3 31 -10 26 11 -6 23 -53 20 -94 22 -123 7 -39 -20 -85 -19
-153 5 -84 30 -232 25 -374 -12z"/>
<path d="M4265 5369 c-80 -42 -90 -53 -40 -45 40 7 115 51 115 67 0 14 -11 11
-75 -22z"/>
<path d="M4390 5355 c-19 -20 -21 -28 -11 -38 10 -9 16 -7 32 12 20 24 25 51
11 51 -5 0 -19 -11 -32 -25z"/>
<path d="M4000 5315 c0 -19 20 -28 52 -23 22 3 21 4 -9 21 -39 21 -43 21 -43
2z"/>
<path d="M4170 5154 c-22 -8 -28 -13 -15 -13 11 0 31 6 45 14 31 17 17 17 -30
-1z"/>
<path d="M4020 5030 c-19 -12 82 -12 120 0 18 6 8 8 -40 9 -36 0 -72 -4 -80
-9z"/>
<path d="M5642 5024 c3 -19 34 -41 43 -32 4 4 4 16 0 27 -8 25 -48 29 -43 5z"/>
<path d="M4725 4961 c-10 -17 12 -21 25 -6 10 12 10 15 -3 15 -9 0 -18 -4 -22
-9z"/>
<path d="M4005 4931 c-36 -14 25 -18 75 -5 l45 12 -50 0 c-27 0 -59 -3 -70 -7z"/>
<path d="M4780 4730 c0 -5 7 -10 15 -10 8 0 15 5 15 10 0 6 -7 10 -15 10 -8 0
-15 -4 -15 -10z"/>
<path d="M5450 4720 l-25 -20 31 0 c28 0 84 29 57 30 -6 0 -17 2 -25 5 -7 2
-24 -4 -38 -15z"/>
<path d="M4874 4708 c-49 -37 -60 -64 -21 -52 28 9 62 34 76 57 17 26 -19 23
-55 -5z"/>
<path d="M3932 4680 c-53 -24 -102 -58 -102 -71 0 -9 105 42 150 74 33 23 6
22 -48 -3z"/>
<path d="M4170 4640 c-18 -12 -2 -12 25 0 13 6 15 9 5 9 -8 0 -22 -4 -30 -9z"/>
<path d="M4463 4553 c-14 -3 -20 -9 -16 -19 3 -8 -1 -14 -8 -14 -7 0 -9 -3 -6
-6 4 -4 -2 -14 -12 -23 -24 -22 -45 -61 -31 -61 5 0 10 8 10 17 0 13 3 14 11
6 14 -14 39 -6 39 13 0 8 6 11 18 7 9 -3 14 -3 10 2 -4 4 0 14 10 21 15 12 15
15 2 24 -12 8 -11 10 8 10 13 0 22 6 22 15 0 15 -13 17 -57 8z"/>
<path d="M4140 4510 c-10 -7 10 -10 65 -10 55 0 75 3 65 10 -8 5 -37 10 -65
10 -27 0 -57 -5 -65 -10z"/>
<path d="M4590 4491 c0 -19 75 -38 85 -22 3 6 -11 15 -32 20 -46 13 -53 13
-53 2z"/>
<path d="M5340 4480 c-20 -6 -21 -8 -5 -8 11 0 34 4 50 8 27 7 27 8 5 8 -14 0
-36 -4 -50 -8z"/>
<path d="M4327 4398 c-15 -11 -47 -26 -70 -33 -37 -11 -39 -13 -19 -19 27 -9
102 22 102 41 0 7 7 13 15 13 8 0 15 5 15 10 0 15 -12 12 -43 -12z"/>
<path d="M4870 4360 c-8 -5 -12 -11 -9 -14 2 -3 11 -1 19 4 8 5 12 11 9 14 -2
3 -11 1 -19 -4z"/>
<path d="M4880 4304 c0 -9 5 -14 12 -12 18 6 21 28 4 28 -9 0 -16 -7 -16 -16z"/>
<path d="M4203 4269 c-18 -5 -35 -14 -38 -19 -9 -15 32 -12 65 5 49 25 35 32
-27 14z"/>
<path d="M5232 4208 c4 -11 44 -13 178 -8 29 1 31 3 15 10 -32 14 -197 12
-193 -2z"/>
<path d="M4798 4191 c-9 -10 -24 -24 -34 -29 -11 -6 -15 -14 -11 -18 9 -10 99
36 105 54 6 20 -42 14 -60 -7z"/>
<path d="M5347 4103 c-19 -19 -5 -33 33 -33 38 0 110 23 110 34 0 8 -135 7
-143 -1z"/>
<path d="M5360 3897 c0 -27 45 -57 86 -57 32 0 134 31 134 40 0 9 -77 20 -131
20 -21 0 -49 4 -63 10 -23 8 -26 7 -26 -13z"/>
<path d="M5230 3810 c0 -5 16 -10 35 -10 19 0 35 5 35 10 0 6 -16 10 -35 10
-19 0 -35 -4 -35 -10z"/>
<path d="M4291 3801 c-24 -15 7 -24 62 -17 83 11 93 26 17 26 -36 0 -71 -4
-79 -9z"/>
<path d="M5458 3773 c-31 -5 -35 -15 -14 -33 21 -17 116 -3 141 21 19 19 19
19 -40 18 -33 -1 -72 -4 -87 -6z"/>
<path d="M5580 3733 c-58 -19 -109 -39 -114 -44 -16 -14 14 -57 47 -69 60 -20
151 13 205 75 39 43 40 53 6 65 -33 13 -23 15 -144 -27z"/>
<path d="M4121 3649 c-40 -16 -18 -19 34 -4 40 11 44 13 20 13 -16 1 -41 -4
-54 -9z"/>
<path d="M4433 3599 c-18 -5 -35 -14 -38 -19 -4 -6 5 -6 22 1 15 6 48 14 73
19 41 7 42 8 10 8 -19 0 -49 -4 -67 -9z"/>
<path d="M4061 3573 c-1 -16 3 -21 14 -17 8 4 15 10 15 16 0 5 -4 7 -9 4 -5
-4 -12 0 -14 6 -3 7 -6 3 -6 -9z"/>
<path d="M5268 3563 c7 -3 16 -2 19 1 4 3 -2 6 -13 5 -11 0 -14 -3 -6 -6z"/>
<path d="M5292 3530 c-36 -8 -49 -17 -39 -26 8 -8 77 15 77 27 0 5 -1 9 -2 8
-2 -1 -18 -5 -36 -9z"/>
<path d="M4508 3473 c7 -3 16 -2 19 1 4 3 -2 6 -13 5 -11 0 -14 -3 -6 -6z"/>
<path d="M5540 3452 c-49 -22 -112 -93 -97 -109 12 -11 157 92 157 112 0 7
-42 5 -60 -3z"/>
<path d="M5352 3420 c-23 -17 -42 -33 -42 -36 0 -4 7 -1 15 6 8 6 18 9 23 6 5
-3 22 8 37 24 37 39 20 38 -33 0z"/>
<path d="M5204 3336 c-41 -18 -54 -37 -17 -25 16 4 41 11 56 14 15 3 25 10 22
15 -8 13 -24 12 -61 -4z"/>
<path d="M6350 8904 c0 -8 5 -12 10 -9 6 3 10 10 10 16 0 5 -4 9 -10 9 -5 0
-10 -7 -10 -16z"/>
<path d="M4366 8674 c-3 -9 -6 -17 -6 -18 0 -2 19 -8 41 -15 60 -18 74 1 21
28 -49 25 -48 25 -56 5z"/>
<path d="M4272 8622 c-10 -3 -8 -7 5 -17 17 -13 43 -10 43 5 0 10 -31 18 -48
12z"/>
<path d="M5478 8593 c7 -3 16 -2 19 1 4 3 -2 6 -13 5 -11 0 -14 -3 -6 -6z"/>
<path d="M5358 8578 c17 -8 26 -8 34 0 9 9 4 12 -22 11 -33 0 -34 -1 -12 -11z"/>
<path d="M3930 8575 c0 -3 17 -12 37 -20 21 -9 47 -25 59 -36 23 -22 94 -31
101 -12 3 7 -32 23 -92 42 -101 33 -105 34 -105 26z"/>
<path d="M7691 8546 c-8 -9 -11 -19 -7 -23 9 -9 29 13 24 27 -2 8 -8 7 -17 -4z"/>
<path d="M5637 8534 c-4 -4 8 -28 27 -53 18 -25 36 -55 40 -65 3 -10 9 -16 12
-13 3 3 -4 27 -15 52 -12 26 -21 56 -21 66 0 18 -29 27 -43 13z"/>
<path d="M7782 8528 c-14 -14 -16 -28 -3 -28 9 0 24 30 18 36 -2 2 -9 -2 -15
-8z"/>
<path d="M8163 8498 c-6 -7 -17 -28 -26 -47 -15 -29 -15 -32 -1 -20 9 7 26 18
38 24 22 11 29 46 10 52 -6 2 -15 -2 -21 -9z"/>
<path d="M5300 8460 c-11 -7 -6 -10 20 -10 26 0 31 3 20 10 -8 5 -17 10 -20
10 -3 0 -12 -5 -20 -10z"/>
<path d="M5940 8378 c0 -22 17 -41 29 -34 19 12 13 46 -9 46 -11 0 -20 -6 -20
-12z"/>
<path d="M3723 8364 c-12 -33 28 -67 96 -80 45 -9 38 5 -23 54 -61 47 -64 48
-73 26z"/>
<path d="M6027 8374 c-8 -9 15 -44 29 -44 11 0 29 29 22 35 -9 8 -45 14 -51 9z"/>
<path d="M8120 8294 c-13 -13 -20 -24 -14 -24 12 0 50 38 43 44 -2 2 -15 -7
-29 -20z"/>
<path d="M8226 8081 c-14 -22 6 -31 65 -31 44 0 60 3 57 13 -3 6 -13 13 -24
13 -10 1 -35 5 -55 9 -23 4 -39 3 -43 -4z"/>
<path d="M8128 8013 c-30 -19 -42 -39 -28 -48 9 -6 70 42 70 56 0 13 -11 11
-42 -8z"/>
<path d="M8346 7985 c-4 -12 3 -15 29 -15 24 0 35 5 35 15 0 10 -10 15 -29 15
-16 0 -31 -6 -35 -15z"/>
<path d="M8482 7988 c6 -18 25 -20 31 -3 5 10 0 15 -14 15 -12 0 -19 -5 -17
-12z"/>
<path d="M3827 7943 c-17 -4 -18 -6 -2 -23 16 -18 19 -18 41 -3 13 8 24 19 24
24 0 9 -31 10 -63 2z"/>
<path d="M8645 7920 c-3 -5 -1 -10 4 -10 6 0 11 5 11 10 0 6 -2 10 -4 10 -3 0
-8 -4 -11 -10z"/>
<path d="M4596 7911 c-3 -5 9 -11 27 -14 37 -5 48 0 27 13 -19 12 -47 13 -54
1z"/>
<path d="M8439 7853 c-31 -3 -53 -11 -65 -25 l-19 -21 120 7 c266 15 287 18
273 32 -7 7 -245 12 -309 7z"/>
<path d="M4840 7786 c0 -9 39 -13 51 -5 10 6 4 9 -18 9 -18 0 -33 -2 -33 -4z"/>
<path d="M4807 7769 c7 -7 15 -10 18 -7 3 3 -2 9 -12 12 -14 6 -15 5 -6 -5z"/>
<path d="M8937 7634 c-14 -15 -6 -34 14 -34 14 0 19 5 17 17 -3 18 -20 27 -31
17z"/>
<path d="M4800 7613 c0 -13 21 -31 63 -54 72 -42 103 -51 126 -39 9 5 24 11
34 14 30 9 14 30 -29 39 -37 8 -154 42 -181 54 -8 3 -13 -3 -13 -14z"/>
<path d="M4380 7576 c0 -2 7 -7 16 -10 8 -3 12 -2 9 4 -6 10 -25 14 -25 6z"/>
<path d="M4195 7535 c80 -29 175 -53 175 -45 0 9 -34 20 -145 49 -58 16 -77
13 -30 -4z"/>
<path d="M4730 7502 c0 -15 67 -87 99 -105 45 -26 41 0 -6 48 -40 38 -93 71
-93 57z"/>
<path d="M2150 7475 c7 -8 16 -15 21 -15 5 0 6 7 3 15 -4 8 -13 15 -21 15 -13
0 -13 -3 -3 -15z"/>
<path d="M2232 7478 c6 -16 36 -34 44 -25 9 9 -15 37 -33 37 -8 0 -13 -5 -11
-12z"/>
<path d="M3968 7398 c-27 -12 -48 -25 -48 -30 0 -4 16 1 35 12 19 10 49 23 67
29 19 5 25 9 13 10 -11 0 -41 -10 -67 -21z"/>
<path d="M1880 7392 c0 -10 22 -32 32 -32 15 0 8 15 -12 28 -11 7 -20 9 -20 4z"/>
<path d="M2240 7375 c0 -16 27 -32 37 -21 7 7 -16 36 -28 36 -5 0 -9 -7 -9
-15z"/>
<path d="M2080 7279 c0 -5 5 -7 10 -4 6 3 10 8 10 11 0 2 -4 4 -10 4 -5 0 -10
-5 -10 -11z"/>
<path d="M9121 7217 c-13 -16 -5 -27 21 -27 11 0 18 7 18 20 0 23 -22 27 -39
7z"/>
<path d="M3780 7165 c14 -8 34 -14 45 -14 15 1 13 4 -10 14 -40 19 -67 18 -35
0z"/>
<path d="M9242 7148 c-17 -17 -15 -28 7 -28 19 0 35 23 24 34 -9 9 -18 7 -31
-6z"/>
<path d="M9340 7140 c0 -11 7 -20 15 -20 8 0 15 9 15 20 0 11 -7 20 -15 20 -8
0 -15 -9 -15 -20z"/>
<path d="M1962 7099 c2 -7 10 -15 17 -17 8 -3 12 1 9 9 -2 7 -10 15 -17 17 -8
3 -12 -1 -9 -9z"/>
<path d="M1876 7091 c-3 -5 1 -12 10 -15 20 -8 29 -1 19 13 -8 13 -22 14 -29
2z"/>
<path d="M1277 7083 c-13 -12 -7 -33 8 -33 8 0 15 9 15 20 0 20 -11 26 -23 13z"/>
<path d="M4048 6993 c6 -2 18 -2 25 0 6 3 1 5 -13 5 -14 0 -19 -2 -12 -5z"/>
<path d="M1792 6978 c3 -7 15 -15 27 -16 15 -3 22 1 19 9 -2 7 -14 14 -27 16
-15 2 -21 -1 -19 -9z"/>
<path d="M1890 6976 c0 -9 7 -16 16 -16 9 0 14 5 12 12 -6 18 -28 21 -28 4z"/>
<path d="M1530 6960 c0 -5 5 -10 10 -10 6 0 10 5 10 10 0 6 -4 10 -10 10 -5 0
-10 -4 -10 -10z"/>
<path d="M9352 6959 c2 -7 10 -15 17 -17 8 -3 12 1 9 9 -2 7 -10 15 -17 17 -8
3 -12 -1 -9 -9z"/>
<path d="M3828 6883 c6 -2 18 -2 25 0 6 3 1 5 -13 5 -14 0 -19 -2 -12 -5z"/>
<path d="M9350 6879 c0 -6 4 -19 10 -29 13 -24 4 -48 -21 -55 -27 -9 -23 -32
7 -39 15 -4 28 -6 29 -4 5 5 7 33 6 86 -1 39 -5 52 -16 52 -8 0 -15 -5 -15
-11z"/>
<path d="M1725 6860 c3 -5 8 -10 11 -10 2 0 4 5 4 10 0 6 -5 10 -11 10 -5 0
-7 -4 -4 -10z"/>
<path d="M9450 6610 c-11 -7 -12 -12 -3 -21 15 -15 48 -7 48 11 0 18 -24 24
-45 10z"/>
<path d="M9556 6525 c-3 -9 1 -18 10 -22 19 -7 28 2 21 22 -8 19 -23 19 -31 0z"/>
<path d="M9555 6440 c-4 -7 -3 -16 3 -22 14 -14 47 -6 47 12 0 18 -40 26 -50
10z"/>
<path d="M1094 6429 c-8 -14 11 -33 25 -25 6 4 11 14 11 22 0 16 -26 19 -36 3z"/>
<path d="M1307 6434 c-9 -10 2 -24 19 -24 8 0 14 7 14 15 0 15 -21 21 -33 9z"/>
<path d="M1396 6433 c-11 -11 -6 -23 8 -23 8 0 17 4 20 9 7 10 -19 23 -28 14z"/>
<path d="M1490 6430 c0 -5 5 -10 10 -10 6 0 10 5 10 10 0 6 -4 10 -10 10 -5 0
-10 -4 -10 -10z"/>
<path d="M1230 6326 c0 -9 7 -16 16 -16 17 0 14 22 -4 28 -7 2 -12 -3 -12 -12z"/>
<path d="M1417 6325 c-8 -18 11 -31 25 -17 11 11 3 32 -12 32 -4 0 -10 -7 -13
-15z"/>
<path d="M1310 6320 c0 -5 7 -7 15 -4 8 4 15 8 15 10 0 2 -7 4 -15 4 -8 0 -15
-4 -15 -10z"/>
<path d="M9660 6256 c0 -19 14 -28 34 -20 25 10 19 34 -9 34 -15 0 -25 -6 -25
-14z"/>
<path d="M1242 6223 c4 -21 30 -24 34 -5 1 7 0 8 -3 2 -8 -16 -26 -12 -19 5 3
8 1 15 -5 15 -6 0 -9 -8 -7 -17z"/>
<path d="M9801 6161 c-12 -8 -12 -12 -2 -25 24 -29 58 -15 45 18 -7 18 -22 20
-43 7z"/>
<path d="M2465 6150 c3 -5 11 -10 16 -10 6 0 7 5 4 10 -3 6 -11 10 -16 10 -6
0 -7 -4 -4 -10z"/>
<path d="M1171 6128 c-1 -10 6 -18 14 -18 8 0 15 8 15 18 0 13 -2 14 -9 3 -7
-11 -9 -11 -14 0 -4 10 -6 9 -6 -3z"/>
<path d="M1250 6121 c0 -14 18 -23 31 -15 8 4 7 9 -2 15 -18 11 -29 11 -29 0z"/>
<path d="M9804 6065 c-4 -10 -1 -21 7 -26 20 -12 34 -5 34 17 0 24 -33 31 -41
9z"/>
<path d="M2390 6020 c19 -13 30 -13 30 0 0 6 -10 10 -22 10 -19 0 -20 -2 -8
-10z"/>
<path d="M9802 5978 c2 -15 10 -23 23 -23 13 0 21 8 23 23 3 18 -1 22 -23 22
-22 0 -26 -4 -23 -22z"/>
<path d="M9804 5905 c-4 -10 -1 -21 7 -26 20 -12 34 -5 34 17 0 24 -33 31 -41
9z"/>
<path d="M920 5895 c0 -8 9 -15 20 -15 13 0 18 5 14 15 -4 8 -12 15 -20 15 -8
0 -14 -7 -14 -15z"/>
<path d="M997 5904 c-9 -10 2 -24 19 -24 8 0 14 7 14 15 0 15 -21 21 -33 9z"/>
<path d="M1851 5874 c-39 -17 -38 -19 9 -28 32 -5 35 -4 36 19 2 28 1 29 -45
9z"/>
<path d="M2325 5870 c-4 -6 16 -10 52 -10 41 0 54 3 43 10 -20 13 -87 13 -95
0z"/>
<path d="M2590 5796 c0 -2 7 -7 16 -10 8 -3 12 -2 9 4 -6 10 -25 14 -25 6z"/>
<path d="M1390 5752 c-11 -15 -36 -36 -55 -46 -20 -11 -35 -27 -35 -37 0 -19
28 -39 46 -32 18 6 34 -66 45 -212 14 -174 14 -224 1 -237 -20 -20 -32 4 -32
62 0 77 -22 73 -45 -8 -9 -31 -21 -66 -26 -77 -4 -11 -10 -49 -13 -85 -4 -71
-33 -250 -41 -258 -3 -3 -5 23 -5 57 0 83 -16 77 -53 -19 -33 -86 -43 -101
-64 -93 -9 4 -21 -1 -29 -12 -19 -26 -17 -42 5 -48 13 -3 20 -17 24 -48 7 -54
38 -83 79 -75 15 3 41 3 58 0 30 -6 30 -7 24 -58 -6 -50 -5 -51 25 -63 19 -7
31 -18 31 -30 1 -31 25 -51 66 -55 36 -3 39 -6 42 -35 3 -32 4 -33 52 -33 64
0 80 -7 80 -37 0 -38 18 -63 45 -63 14 0 25 2 25 4 0 2 7 37 15 77 23 113 24
167 4 246 -11 40 -19 82 -19 93 0 16 -5 19 -24 16 -19 -3 -23 -1 -19 15 4 14
0 19 -14 19 -10 0 -24 -5 -30 -11 -7 -7 -10 -3 -10 15 0 14 -8 42 -18 62 -21
45 -32 204 -17 258 8 27 8 45 1 58 -10 18 -5 55 17 144 4 17 0 23 -21 28 -35
9 -29 37 10 54 63 27 80 38 83 55 4 19 -32 25 -43 7 -10 -17 -72 -12 -79 6 -8
21 7 39 56 66 22 13 46 35 54 50 l14 26 -37 -10 c-49 -13 -105 -2 -101 20 3 9
9 16 16 15 6 -2 23 8 36 22 14 14 32 25 41 25 29 0 10 25 -21 28 -53 5 -72 12
-103 38 -36 30 -39 46 -11 74 24 24 27 70 5 70 -8 0 -24 -13 -35 -28z m221
-1257 c6 -139 -9 -169 -50 -101 -24 39 -30 148 -8 171 6 8 19 22 27 32 13 16
15 14 21 -17 4 -19 8 -57 10 -85z m19 85 c0 -11 -4 -20 -10 -20 -5 0 -10 9
-10 20 0 11 5 20 10 20 6 0 10 -9 10 -20z"/>
<path d="M2403 5773 c-24 -5 -30 -18 -13 -28 15 -9 94 5 83 15 -12 12 -45 18
-70 13z"/>
<path d="M2175 5750 c3 -5 17 -10 31 -10 13 0 24 5 24 10 0 6 -14 10 -31 10
-17 0 -28 -4 -24 -10z"/>
<path d="M1828 5738 c-7 -4 -25 -8 -40 -8 -23 0 -28 -4 -28 -25 0 -22 4 -25
33 -25 34 0 77 30 77 54 0 14 -23 17 -42 4z"/>
<path d="M2290 5740 c0 -5 5 -10 10 -10 6 0 10 5 10 10 0 6 -4 10 -10 10 -5 0
-10 -4 -10 -10z"/>
<path d="M9983 5673 c-20 -8 -15 -31 8 -38 25 -8 44 7 36 29 -6 16 -21 19 -44
9z"/>
<path d="M2008 5649 c-21 -12 -24 -49 -5 -49 19 0 37 21 37 42 0 20 -7 22 -32
7z"/>
<path d="M2443 5653 c-7 -2 -13 -9 -13 -15 0 -12 41 -6 41 7 1 12 -11 15 -28
8z"/>
<path d="M1822 5627 c-7 -16 -12 -38 -12 -50 1 -20 2 -19 16 6 8 16 14 38 11
50 -3 21 -4 20 -15 -6z"/>
<path d="M2130 5640 c0 -5 7 -10 16 -10 8 0 12 5 9 10 -3 6 -10 10 -16 10 -5
0 -9 -4 -9 -10z"/>
<path d="M2212 5641 c-11 -7 -10 -10 3 -15 26 -10 35 -7 35 9 0 17 -18 19 -38
6z"/>
<path d="M2340 5635 c0 -9 9 -15 24 -15 30 0 42 15 20 24 -27 10 -44 7 -44 -9z"/>
<path d="M1585 5590 c3 -5 10 -10 16 -10 5 0 9 5 9 10 0 6 -7 10 -16 10 -8 0
-12 -4 -9 -10z"/>
<path d="M10071 5556 c-8 -10 -7 -17 3 -26 17 -13 36 -6 36 15 0 19 -27 26
-39 11z"/>
<path d="M1990 5545 c-7 -9 -10 -18 -7 -21 10 -11 37 5 37 21 0 19 -14 19 -30
0z"/>
<path d="M2102 5533 c-20 -3 -32 -9 -29 -16 4 -15 67 -21 86 -8 15 10 6 32
-12 29 -7 0 -27 -3 -45 -5z"/>
<path d="M2205 5530 c-4 -6 5 -10 20 -10 15 0 24 4 20 10 -3 6 -12 10 -20 10
-8 0 -17 -4 -20 -10z"/>
<path d="M2400 5519 c0 -5 5 -7 10 -4 6 3 10 8 10 11 0 2 -4 4 -10 4 -5 0 -10
-5 -10 -11z"/>
<path d="M2500 5521 c0 -17 14 -18 40 -5 l25 14 -32 0 c-18 0 -33 -4 -33 -9z"/>
<path d="M10062 5453 c4 -22 43 -25 43 -3 0 8 -11 16 -23 18 -19 3 -23 0 -20
-15z"/>
<path d="M10166 5455 c-6 -17 17 -31 34 -20 8 5 8 11 -1 21 -15 18 -25 18 -33
-1z"/>
<path d="M740 5440 c0 -11 4 -20 9 -20 13 0 32 26 24 33 -13 14 -33 6 -33 -13z"/>
<path d="M1787 5413 c-9 -27 -19 -84 -22 -128 -10 -130 -25 -238 -40 -267 -16
-32 -4 -37 24 -9 24 24 49 103 61 196 12 87 13 255 2 255 -4 0 -16 -21 -25
-47z"/>
<path d="M9955 5450 c-10 -17 5 -30 35 -30 26 0 46 21 33 34 -10 10 -61 7 -68
-4z"/>
<path d="M2296 5440 c-55 -17 -57 -54 -3 -43 53 10 70 22 56 39 -13 16 -13 16
-53 4z"/>
<path d="M2156 5424 c-11 -28 -7 -35 14 -24 23 12 27 40 6 40 -8 0 -17 -7 -20
-16z"/>
<path d="M2040 5404 c-14 -7 -43 -14 -65 -14 -30 0 -36 -3 -25 -10 8 -5 27
-10 42 -10 18 0 29 -7 33 -21 5 -15 10 -18 18 -10 6 6 12 17 13 25 1 7 5 23 9
35 3 11 5 21 3 20 -2 -1 -14 -7 -28 -15z"/>
<path d="M970 5355 c-18 -21 -3 -32 16 -13 10 9 12 18 6 22 -5 3 -15 -1 -22
-9z"/>
<path d="M744 5348 c3 -15 26 -23 26 -8 0 6 -4 9 -9 6 -5 -4 -12 -1 -14 4 -3
6 -4 5 -3 -2z"/>
<path d="M9967 5353 c-15 -14 -6 -23 23 -23 20 0 30 5 30 15 0 15 -40 21 -53
8z"/>
<path d="M1002 5318 c2 -8 -5 -12 -19 -10 -14 2 -23 -2 -23 -10 0 -7 -3 -23
-6 -35 -4 -14 -2 -23 5 -23 6 0 11 6 11 13 0 26 20 40 57 41 21 1 36 6 35 11
-2 6 -8 9 -13 7 -6 -1 -19 2 -30 8 -15 8 -19 8 -17 -2z"/>
<path d="M1252 5278 c-6 -23 -10 -44 -8 -45 9 -10 36 12 36 29 0 13 5 18 14
15 12 -5 13 -1 7 16 -14 39 -37 32 -49 -15z"/>
<path d="M2030 5310 c-69 -7 -78 -12 -85 -58 -16 -92 -73 -218 -132 -290 -31
-38 -34 -47 -25 -67 14 -30 52 -41 93 -26 56 20 79 15 85 -19 6 -27 15 -35 37
-31 5 1 11 -8 14 -19 8 -29 29 -24 43 10 16 38 48 58 62 39 22 -33 -24 -203
-70 -258 -33 -39 -89 -55 -144 -40 -21 5 -38 12 -38 15 0 14 31 61 49 73 32
23 15 31 -63 31 -86 0 -114 20 -107 75 1 14 128 17 136 4 4 -5 19 -9 35 -9 22
0 29 6 34 26 9 35 3 39 -41 26 -22 -6 -68 -8 -106 -5 -59 5 -68 8 -73 28 -3
13 -1 39 4 59 10 33 8 37 -16 49 -15 7 -26 20 -26 30 2 20 -15 22 -39 5 -16
-12 -16 -17 3 -67 12 -31 23 -87 25 -133 3 -44 12 -101 21 -126 11 -31 18 -94
22 -184 l5 -138 -33 -30 c-31 -29 -32 -34 -27 -83 3 -29 1 -61 -5 -70 -15 -28
7 -47 46 -40 31 5 34 3 55 -43 13 -26 35 -63 51 -83 16 -20 34 -56 39 -81 6
-25 19 -67 31 -93 18 -41 24 -46 44 -41 20 5 24 1 30 -27 3 -17 6 -47 6 -65 0
-38 9 -43 32 -16 35 40 42 70 48 209 5 121 9 147 26 170 27 35 38 33 45 -11 8
-52 14 -53 44 -6 29 46 49 58 69 41 10 -8 16 -9 21 -1 12 19 26 11 15 -9 -13
-25 -13 -71 0 -71 5 0 22 19 38 43 16 23 39 50 50 61 19 17 22 17 37 2 20 -20
35 -20 60 -2 44 32 60 -17 26 -77 -10 -18 -26 -64 -35 -102 -31 -126 -45 -159
-74 -176 -15 -9 -38 -38 -51 -65 -14 -27 -31 -57 -39 -66 -17 -20 -48 -24 -54
-8 -2 6 -19 -1 -38 -15 -19 -15 -57 -38 -83 -51 -39 -20 -52 -23 -63 -13 -8 6
-12 20 -9 30 3 11 8 28 11 39 5 18 1 20 -36 20 -48 0 -62 -20 -34 -51 15 -17
16 -23 5 -41 -11 -17 -10 -23 3 -36 13 -14 19 -14 41 -2 14 7 27 11 29 9 2 -2
-1 -26 -7 -52 -13 -60 -1 -77 36 -52 33 21 47 13 47 -29 0 -19 7 -39 15 -46 8
-7 15 -9 15 -4 0 4 5 3 11 -3 7 -7 6 -21 -5 -48 -22 -53 -20 -57 17 -35 52 32
55 29 50 -60 -6 -82 1 -95 31 -65 20 21 25 54 29 225 2 80 7 153 11 162 6 12
18 17 42 16 25 -1 31 -4 24 -13 -8 -9 -6 -15 6 -19 26 -10 84 53 133 144 23
44 48 80 54 80 7 0 21 -7 31 -15 26 -20 132 -20 178 0 34 14 35 16 42 81 4 37
12 76 18 88 14 26 47 56 63 56 28 0 104 199 112 291 8 97 1 106 -94 111 -61 4
-82 1 -97 -11 -18 -15 -19 -15 -12 14 11 43 42 72 86 79 35 5 60 27 60 52 0 4
-24 4 -54 1 -90 -9 -103 36 -20 68 25 9 43 20 40 23 -3 3 -1 11 5 19 9 11 -1
13 -60 13 -83 0 -91 9 -71 71 14 42 33 47 38 11 3 -21 5 -21 31 -7 16 8 31 21
34 29 5 12 -5 16 -50 18 -41 2 -59 8 -67 21 -9 16 -5 24 27 50 20 18 37 35 37
40 0 4 -36 7 -79 6 l-80 -1 -46 -142 c-51 -151 -149 -356 -172 -356 -7 0 -18
12 -24 27 -9 25 -3 53 26 125 6 14 -1 17 -37 20 l-43 3 1 45 c0 25 1 61 2 80
3 56 -9 150 -19 150 -5 0 -9 -8 -9 -17 0 -10 -5 -25 -10 -33 -29 -45 -43 83
-20 183 5 24 11 74 12 110 3 56 0 69 -19 89 -13 14 -23 38 -24 58 -1 31 -17
90 -24 90 -1 0 -22 -9 -46 -19 -37 -17 -52 -18 -91 -10 -73 16 -64 41 27 77
65 26 70 42 11 42 -24 0 -47 4 -50 9 -9 14 -36 17 -96 11z m843 -1115 c7 2 36
6 65 10 l52 6 0 -35 c0 -19 -7 -41 -15 -50 -8 -8 -15 -18 -15 -23 0 -5 -8 -16
-17 -24 -10 -9 -22 -23 -28 -32 -5 -10 -26 -19 -45 -22 l-35 -5 35 16 c71 32
86 89 26 98 -17 3 -48 7 -70 10 -21 3 -41 8 -44 11 -3 3 7 18 23 35 24 25 30
27 42 15 7 -8 19 -12 26 -10z"/>
<path d="M890 5260 c0 -5 5 -10 11 -10 5 0 7 5 4 10 -3 6 -8 10 -11 10 -2 0
-4 -4 -4 -10z"/>
<path d="M2448 5194 c-5 -4 -8 -16 -8 -26 0 -15 9 -18 53 -19 84 -3 121 2 136
17 8 7 12 16 8 20 -9 10 -181 17 -189 8z"/>
<path d="M1044 5085 c-4 -10 -1 -21 7 -26 20 -12 34 -5 34 17 0 24 -33 31 -41
9z"/>
<path d="M965 5081 c-8 -15 3 -31 21 -31 9 0 14 7 12 17 -4 20 -24 28 -33 14z"/>
<path d="M2770 5039 c0 -5 5 -7 10 -4 6 3 10 8 10 11 0 2 -4 4 -10 4 -5 0 -10
-5 -10 -11z"/>
<path d="M2586 5005 c-8 -31 4 -136 14 -130 7 5 13 30 26 115 5 30 3 36 -14
37 -14 1 -22 -6 -26 -22z"/>
<path d="M965 4994 c-17 -13 -18 -16 -5 -24 21 -14 30 -12 37 6 9 24 -10 34
-32 18z"/>
<path d="M1192 4975 c-17 -37 -14 -45 4 -12 9 16 14 31 11 33 -2 2 -9 -7 -15
-21z"/>
<path d="M2669 4897 c-60 -63 -62 -80 -13 -103 35 -17 37 -17 50 0 7 10 29 36
49 58 21 22 35 41 34 43 -2 1 -27 6 -55 10 -39 5 -54 3 -65 -8z"/>
<path d="M2793 4875 c-3 -9 -3 -18 0 -22 10 -10 37 6 37 22 0 20 -29 20 -37 0z"/>
<path d="M840 4645 c0 -10 7 -15 18 -13 21 4 19 22 -2 26 -10 2 -16 -3 -16
-13z"/>
<path d="M1097 4524 c-14 -14 -7 -35 11 -32 9 2 17 10 17 17 0 16 -18 25 -28
15z"/>
<path d="M1095 4420 c-7 -12 2 -30 16 -30 6 0 7 5 4 10 -3 6 -1 10 5 10 6 0 8
5 5 10 -3 6 -10 10 -15 10 -5 0 -12 -4 -15 -10z"/>
<path d="M9487 4364 c-16 -16 -6 -35 16 -32 12 2 22 10 22 18 0 16 -26 25 -38
14z"/>
<path d="M1227 4325 c-4 -8 -2 -17 3 -20 6 -4 10 3 10 14 0 25 -6 27 -13 6z"/>
<path d="M9473 4273 c-23 -9 -14 -33 12 -33 18 0 25 5 25 20 0 19 -12 24 -37
13z"/>
<path d="M3063 4234 c-3 -8 -1 -20 6 -27 8 -8 11 -4 11 16 0 30 -7 35 -17 11z"/>
<path d="M1445 4219 c-11 -16 -1 -19 13 -3 7 8 8 14 3 14 -5 0 -13 -5 -16 -11z"/>
<path d="M9461 4181 c-17 -11 -7 -41 12 -41 8 0 20 7 28 16 10 13 10 17 -2 25
-17 11 -21 11 -38 0z"/>
<path d="M9440 4064 c0 -10 7 -14 22 -12 32 5 35 28 4 28 -17 0 -26 -5 -26
-16z"/>
<path d="M1627 4005 c-8 -18 11 -31 25 -17 11 11 3 32 -12 32 -4 0 -10 -7 -13
-15z"/>
<path d="M1625 3911 c-8 -15 3 -31 21 -31 9 0 14 7 12 17 -4 20 -24 28 -33 14z"/>
<path d="M3137 3863 c-12 -20 -18 -93 -8 -93 6 0 11 3 11 8 0 4 4 24 9 45 8
33 0 60 -12 40z"/>
<path d="M1556 3811 c-4 -5 -2 -12 3 -15 5 -4 12 -2 15 3 4 5 2 12 -3 15 -5 4
-12 2 -15 -3z"/>
<path d="M1622 3803 c4 -22 43 -25 43 -3 0 8 -11 16 -23 18 -19 3 -23 0 -20
-15z"/>
<path d="M2927 3774 c-4 -4 -7 -14 -7 -23 0 -11 3 -12 11 -4 6 6 10 16 7 23
-2 6 -7 8 -11 4z"/>
<path d="M1750 3710 c-11 -7 -12 -12 -3 -21 15 -15 43 -5 43 16 0 17 -18 19
-40 5z"/>
<path d="M1871 3661 c-10 -17 -9 -22 4 -27 26 -10 42 13 23 32 -15 15 -17 15
-27 -5z"/>
<path d="M2795 3559 c-16 -6 -77 -9 -135 -7 -104 3 -105 3 -108 -21 l-4 -24
115 6 c103 5 120 8 154 31 39 27 31 32 -22 15z"/>
<path d="M1880 3546 c0 -9 7 -16 16 -16 9 0 14 5 12 12 -6 18 -28 21 -28 4z"/>
<path d="M3082 3491 c4 -13 18 -16 19 -4 0 4 -5 9 -11 12 -7 2 -11 -2 -8 -8z"/>
<path d="M2553 3408 c-14 -19 -24 -48 -15 -48 4 0 18 9 32 20 14 11 33 20 42
20 9 0 20 5 23 10 9 15 -71 12 -82 -2z"/>
<path d="M8134 3399 c-3 -6 0 -17 8 -25 13 -13 16 -13 28 1 12 14 11 18 -1 26
-19 12 -26 11 -35 -2z"/>
<path d="M9235 3399 c-9 -13 12 -29 38 -29 26 0 17 34 -10 38 -11 2 -24 -2
-28 -9z"/>
<path d="M1981 3376 c-9 -10 -8 -15 4 -20 8 -3 15 -4 15 -2 0 3 3 11 6 20 8
20 -9 21 -25 2z"/>
<path d="M9277 3324 c-14 -15 -6 -34 14 -34 14 0 19 5 17 17 -3 18 -20 27 -31
17z"/>
<path d="M8130 3295 c-10 -11 -10 -19 -2 -27 15 -15 44 -2 40 19 -4 23 -22 27
-38 8z"/>
<path d="M1987 3293 c-4 -3 -7 -11 -7 -17 0 -6 5 -5 12 2 6 6 9 14 7 17 -3 3
-9 2 -12 -2z"/>
<path d="M2045 3290 c3 -5 8 -10 11 -10 2 0 4 5 4 10 0 6 -5 10 -11 10 -5 0
-7 -4 -4 -10z"/>
<path d="M9270 3230 c-18 -11 -4 -42 17 -38 10 2 19 10 21 19 4 19 -19 31 -38
19z"/>
<path d="M8133 3195 c-7 -19 12 -35 40 -35 13 0 18 6 15 23 -4 27 -45 37 -55
12z"/>
<path d="M2346 3120 l-18 -35 22 21 c12 12 20 28 18 35 -3 9 -12 0 -22 -21z"/>
<path d="M8246 3113 c-12 -12 -6 -33 9 -33 8 0 15 6 15 14 0 17 -14 28 -24 19z"/>
<path d="M2067 3083 c-13 -12 -7 -33 8 -33 8 0 15 9 15 20 0 20 -11 26 -23 13z"/>
<path d="M8236 3041 c-18 -7 -18 -8 5 -24 32 -23 39 -21 39 8 0 26 -10 29 -44
16z"/>
<path d="M9255 3020 c-17 -18 -16 -19 10 -26 31 -8 48 5 39 29 -8 22 -27 21
-49 -3z"/>
<path d="M2070 2960 c0 -11 7 -20 15 -20 8 0 15 9 15 20 0 11 -7 20 -15 20 -8
0 -15 -9 -15 -20z"/>
<path d="M8281 2941 c-19 -12 -6 -41 18 -41 24 0 33 13 25 34 -7 18 -22 20
-43 7z"/>
<path d="M2093 2864 c-8 -22 15 -44 26 -25 10 16 4 41 -10 41 -5 0 -12 -7 -16
-16z"/>
<path d="M8311 2836 c-10 -11 -8 -16 9 -21 24 -8 46 7 36 24 -10 15 -31 14
-45 -3z"/>
<path d="M8233 2833 c-22 -8 -14 -23 12 -23 16 0 25 6 25 15 0 15 -14 18 -37
8z"/>
<path d="M2070 2766 c0 -21 21 -31 30 -15 5 7 6 17 4 21 -9 14 -34 9 -34 -6z"/>
<path d="M2400 2651 c0 -6 6 -11 13 -11 8 0 7 -4 -3 -10 -13 -8 -12 -10 3 -10
12 0 17 6 15 17 -3 18 -28 31 -28 14z"/>
<path d="M8593 2633 c-23 -9 -14 -33 12 -33 18 0 25 5 25 20 0 19 -12 24 -37
13z"/>
<path d="M8303 2554 c-8 -21 13 -42 28 -27 13 13 5 43 -11 43 -6 0 -13 -7 -17
-16z"/>
<path d="M2636 2532 c-3 -5 1 -9 9 -9 8 0 15 4 15 9 0 4 -4 8 -9 8 -6 0 -12
-4 -15 -8z"/>
<path d="M9115 2518 c-104 -13 -105 -13 -105 -43 l0 -27 68 7 c37 4 72 10 77
14 6 3 21 6 34 6 31 0 52 31 31 45 -8 5 -17 9 -20 8 -3 0 -41 -5 -85 -10z"/>
<path d="M8902 2478 c-13 -13 2 -38 24 -38 20 0 27 19 14 35 -15 18 -22 19
-38 3z"/>
<path d="M8387 2383 c-14 -13 -6 -33 13 -33 13 0 20 7 20 20 0 19 -20 27 -33
13z"/>
<path d="M8910 2375 c-10 -11 -10 -19 -2 -27 15 -15 44 -2 40 19 -4 23 -22 27
-38 8z"/>
<path d="M9113 2383 c-18 -7 -16 -30 4 -37 9 -4 23 0 32 9 14 14 14 17 1 25
-16 11 -19 11 -37 3z"/>
<path d="M9015 2370 c-9 -15 4 -30 25 -30 24 0 36 20 19 31 -19 12 -36 11 -44
-1z"/>
<path d="M2660 2341 c0 -7 -4 -10 -8 -7 -5 3 -9 -1 -9 -9 0 -8 4 -15 9 -15 11
0 22 29 14 37 -3 4 -6 1 -6 -6z"/>
<path d="M8370 2296 c-10 -13 -9 -17 3 -22 24 -9 52 0 52 16 0 21 -39 24 -55
6z"/>
<path d="M2634 2259 c-10 -17 13 -36 27 -22 12 12 4 33 -11 33 -5 0 -12 -5
-16 -11z"/>
<path d="M8513 2233 c-21 -8 -15 -30 10 -37 35 -9 39 -7 35 16 -3 23 -22 31
-45 21z m22 -13 c3 -5 1 -10 -4 -10 -6 0 -11 5 -11 10 0 6 2 10 4 10 3 0 8 -4
11 -10z"/>
<path d="M2710 2156 c0 -21 21 -31 30 -15 5 7 6 17 4 21 -9 14 -34 9 -34 -6z"/>
<path d="M8621 2131 c-12 -8 -12 -12 -2 -25 8 -9 20 -16 28 -16 19 0 29 30 12
41 -17 11 -21 11 -38 0z"/>
<path d="M2740 2049 c0 -14 5 -19 17 -17 26 5 29 38 4 38 -15 0 -21 -6 -21
-21z"/>
<path d="M8661 2031 c-17 -11 -7 -41 14 -41 9 0 15 9 15 25 0 27 -6 30 -29 16z"/>
<path d="M3085 2003 c-48 -11 -230 -75 -242 -85 -7 -6 -13 -17 -13 -25 0 -19
26 -14 126 21 40 13 93 28 118 31 25 4 47 11 47 16 7 45 1 51 -36 42z"/>
<path d="M2740 1959 c0 -14 5 -19 17 -17 26 5 29 38 4 38 -15 0 -21 -6 -21
-21z"/>
<path d="M8504 1866 c-7 -19 3 -36 22 -36 10 0 14 8 12 22 -4 26 -26 36 -34
14z"/>
<path d="M2926 1849 c-33 -26 -21 -50 16 -31 13 6 38 15 56 19 47 12 45 27 -4
31 -29 2 -47 -3 -68 -19z"/>
<path d="M2740 1780 c0 -5 5 -10 10 -10 6 0 10 5 10 10 0 6 -4 10 -10 10 -5 0
-10 -4 -10 -10z"/>
<path d="M8506 1771 c-8 -13 21 -34 39 -27 25 9 18 36 -9 36 -14 0 -27 -4 -30
-9z"/>
<path d="M3379 1691 c-91 -15 -95 -17 -79 -34 14 -14 24 -16 67 -8 107 21 142
33 136 47 -6 16 -1 17 -124 -5z"/>
<path d="M8635 1701 c-9 -16 3 -31 26 -31 14 0 19 6 17 17 -4 20 -33 29 -43
14z"/>
<path d="M3106 1671 c-9 -15 23 -36 36 -23 5 5 7 15 4 21 -9 13 -33 14 -40 2z"/>
<path d="M4778 1574 c-5 -4 -8 -28 -7 -53 l1 -46 9 34 c11 36 9 77 -3 65z"/>
<path d="M8722 1534 c-37 -25 -1 -49 38 -24 13 8 13 11 0 25 -14 13 -18 13
-38 -1z"/>
<path d="M3063 1478 c2 -7 10 -13 17 -13 7 0 15 6 18 13 2 7 -5 12 -18 12 -13
0 -20 -5 -17 -12z"/>
<path d="M8921 1457 c-6 -8 -6 -18 -1 -27 7 -11 11 -11 24 -1 9 8 16 17 16 21
0 14 -28 19 -39 7z"/>
<path d="M8825 1450 c-11 -18 13 -36 31 -25 9 6 16 15 17 20 3 14 -40 18 -48
5z"/>
<path d="M3307 1433 c-12 -11 -8 -43 6 -43 17 1 47 25 47 39 0 12 -42 16 -53
4z"/>
<path d="M3640 1240 c-80 -38 -146 -73 -147 -77 -2 -4 1 -14 6 -22 8 -12 14
-12 39 -2 17 7 38 21 47 31 9 10 24 16 33 13 22 -5 112 53 147 95 15 17 25 32
23 32 -2 0 -69 -31 -148 -70z"/>
<path d="M5100 1300 c0 -5 6 -10 14 -10 8 0 18 5 21 10 3 6 -3 10 -14 10 -12
0 -21 -4 -21 -10z"/>
<path d="M8995 1290 c-4 -7 -3 -16 3 -22 14 -14 45 -2 40 15 -6 16 -34 21 -43
7z"/>
<path d="M4232 1269 c2 -6 8 -10 13 -10 5 0 11 4 13 10 2 6 -4 11 -13 11 -9 0
-15 -5 -13 -11z"/>
<path d="M5161 1216 l-24 -13 26 -7 c30 -7 59 2 54 18 -5 16 -29 17 -56 2z"/>
<path d="M9014 1199 c-9 -15 12 -33 30 -26 9 4 16 13 16 22 0 17 -35 21 -46 4z"/>
<path d="M9110 1198 c0 -7 5 -20 10 -28 12 -19 35 2 27 24 -7 19 -37 21 -37 4z"/>
<path d="M3407 1144 c-14 -15 -6 -34 14 -34 14 0 19 5 17 17 -3 18 -20 27 -31
17z"/>
<path d="M5175 1105 c-35 -29 -29 -32 19 -8 19 9 33 20 30 25 -8 12 -16 9 -49
-17z"/>
<path d="M3797 1114 c-9 -10 2 -24 18 -24 9 0 12 6 9 15 -6 16 -17 19 -27 9z"/>
<path d="M4678 1083 c7 -3 16 -2 19 1 4 3 -2 6 -13 5 -11 0 -14 -3 -6 -6z"/>
<path d="M4670 1020 c0 -11 7 -20 15 -20 8 0 15 9 15 20 0 11 -7 20 -15 20 -8
0 -15 -9 -15 -20z"/>
<path d="M9090 920 c-12 -7 -12 -13 -4 -27 16 -26 39 -22 39 6 0 27 -13 35
-35 21z"/>
<path d="M9073 818 c-28 -14 -29 -25 -3 -33 34 -11 80 4 80 26 0 22 -39 25
-77 7z"/>
<path d="M4860 698 c0 -18 12 -33 32 -41 25 -9 33 11 12 34 -19 22 -44 25 -44
7z"/>
<path d="M4975 700 c-10 -16 15 -40 41 -40 29 0 32 25 5 40 -25 13 -38 13 -46
0z"/>
<path d="M4820 644 c0 -12 -6 -15 -22 -11 -13 3 -38 8 -55 12 -21 5 -33 4 -33
-3 0 -31 131 -92 199 -92 33 0 39 -4 43 -24 3 -14 0 -30 -5 -35 -7 -7 -7 -11
-1 -11 5 0 11 -11 12 -25 1 -19 -6 -28 -33 -41 -41 -19 -47 -50 -12 -63 37
-14 50 -36 32 -51 -13 -11 -19 -11 -31 2 -11 11 -28 14 -58 11 -23 -3 -59 0
-81 6 -46 12 -50 10 -35 -19 8 -15 15 -18 24 -11 19 16 31 0 59 -84 14 -44 26
-72 27 -62 0 9 6 17 13 17 13 0 17 -6 61 -99 29 -61 29 -61 73 -61 24 0 43 1
43 3 0 1 -9 25 -20 54 -24 63 -54 192 -46 200 5 6 36 -21 36 -32 0 -4 25 -50
55 -102 30 -53 55 -102 55 -109 0 -8 7 -14 15 -14 14 0 14 3 0 24 -17 26 -26
128 -11 136 4 3 18 -13 30 -35 11 -22 24 -41 29 -43 4 -2 7 -8 7 -13 0 -6 10
-23 22 -39 16 -23 30 -30 55 -30 37 0 41 11 16 39 -33 36 -39 46 -51 80 -11
30 -10 32 5 20 9 -8 22 -29 30 -48 21 -50 37 -26 22 33 -10 41 -10 48 6 59 14
11 15 19 6 53 -15 54 -21 60 -65 67 -51 8 -85 39 -66 61 17 22 47 20 62 -4 16
-25 26 -26 24 -2 -1 12 12 21 47 31 67 20 61 44 -13 52 -30 3 -46 7 -35 8 73
9 85 16 85 51 0 25 -4 30 -25 30 -14 0 -48 -9 -76 -19 -39 -15 -49 -16 -45 -6
7 21 -27 28 -95 20 -50 -6 -59 -4 -59 9 0 8 7 19 16 24 8 5 21 19 27 32 8 17
23 25 47 28 19 2 43 13 53 23 19 20 18 20 -20 13 -21 -4 -54 -15 -73 -25 -43
-24 -80 -24 -118 -2 -28 16 -31 16 -46 0 -19 -19 -53 -22 -76 -7 -12 8 -13 12
-2 19 11 6 10 10 -3 15 -23 9 -25 8 -25 -10z m269 -208 c-11 -9 -69 -15 -64
-6 3 6 20 10 37 10 17 0 29 -2 27 -4z"/>
<path d="M4734 511 c12 -19 58 -33 69 -22 15 15 6 21 -38 28 -29 5 -36 3 -31
-6z"/>
<path d="M4850 491 c0 -17 6 -21 31 -21 24 0 30 4 27 18 -2 10 -14 18 -31 20
-22 3 -27 -1 -27 -17z"/>
<path d="M3730 484 c0 -17 22 -14 28 4 2 7 -3 12 -12 12 -9 0 -16 -7 -16 -16z"/>
<path d="M5493 435 c-28 -12 -33 -19 -33 -47 1 -36 15 -61 42 -71 13 -4 18 1
23 23 4 16 4 34 0 40 -11 18 6 50 26 50 11 0 17 5 14 10 -8 14 -34 12 -72 -5z"/>
<path d="M4750 405 c0 -21 5 -25 28 -25 16 0 37 -7 48 -15 28 -21 44 -18 44
10 0 21 -8 26 -52 40 -67 20 -68 19 -68 -10z"/>
<path d="M5367 394 c6 -15 23 -19 23 -5 0 5 -7 11 -14 14 -10 4 -13 1 -9 -9z"/>
<path d="M9282 393 c4 -22 43 -25 43 -3 0 8 -11 16 -23 18 -19 3 -23 0 -20
-15z"/>
<path d="M5346 315 c-20 -20 -20 -25 0 -53 22 -31 34 -27 34 11 0 47 -13 63
-34 42z"/>
<path d="M9294 305 c-19 -15 -19 -15 1 -30 26 -20 39 -14 43 18 4 31 -13 35
-44 12z"/>
<path d="M5440 286 c0 -8 7 -16 15 -20 13 -4 14 -2 5 14 -13 23 -20 26 -20 6z"/>
<path d="M2400 251 c0 -12 6 -21 16 -21 9 0 14 7 12 17 -5 25 -28 28 -28 4z"/>
<path d="M9296 215 c-28 -21 -10 -35 44 -35 75 0 82 32 10 43 -22 3 -43 0 -54
-8z"/>
<path d="M2400 169 c0 -24 23 -21 28 4 2 10 -3 17 -12 17 -10 0 -16 -9 -16
-21z"/>
<path d="M9352 113 c2 -12 12 -18 28 -18 36 0 33 29 -3 33 -23 3 -28 0 -25
-15z"/>
<path d="M5588 103 c-12 -3 -16 -16 -16 -54 -1 -46 5 -58 21 -42 4 3 2 12 -4
20 -18 21 6 15 26 -7 15 -17 31 -20 93 -20 l76 0 -29 30 c-43 44 -130 83 -167
73z"/>
</g>
</svg>
